<svg width="24" height="24" viewBox="0 0 24 24" fill="none" xmlns="http://www.w3.org/2000/svg">
<path d="M22.0925 17.488C21.5408 18.7103 21.2776 19.2584 20.5672 20.3365C19.5793 21.8473 18.1802 23.7295 16.4495 23.7404C14.9134 23.7548 14.5168 22.738 12.429 22.756C10.3413 22.7632 9.90498 23.7584 8.36532 23.744C6.63816 23.7295 5.31484 22.0312 4.32325 20.5276C1.55042 16.3053 1.25835 11.3545 2.97109 8.72233C4.18263 6.85454 6.1009 5.75838 7.90378 5.75838C9.73551 5.75838 10.8894 6.76439 12.4074 6.76439C13.8785 6.76439 14.7728 5.75478 16.8966 5.75478C18.4975 5.75478 20.1958 6.62738 21.4074 8.13819C17.441 10.3089 18.0865 15.9735 22.0925 17.488ZM15.2848 4.06728C16.0564 3.0793 16.6406 1.68026 16.4314 0.255981C15.1694 0.34252 13.6983 1.14661 12.8365 2.18507C12.0576 3.13338 11.4122 4.54324 11.6646 5.90622C13.0384 5.94949 14.4591 5.13098 15.2848 4.06728Z" fill="black"/>
</svg>
