<svg width="25" height="24" viewBox="0 0 25 24" fill="none" xmlns="http://www.w3.org/2000/svg">
<path d="M17.6709 13.2C18.5709 13.2 19.3629 12.708 19.7709 11.964L24.0669 4.176C24.5109 3.384 23.9349 2.4 23.0229 2.4H5.26294L4.13494 0H0.210938V2.4H2.61094L6.93094 11.508L5.31094 14.436C4.43494 16.044 5.58694 18 7.41094 18H21.8109V15.6H7.41094L8.73094 13.2H17.6709ZM6.40294 4.8H20.9829L17.6709 10.8H9.24694L6.40294 4.8ZM7.41094 19.2C6.09094 19.2 5.02294 20.28 5.02294 21.6C5.02294 22.92 6.09094 24 7.41094 24C8.73094 24 9.81094 22.92 9.81094 21.6C9.81094 20.28 8.73094 19.2 7.41094 19.2ZM19.4109 19.2C18.0909 19.2 17.0229 20.28 17.0229 21.6C17.0229 22.92 18.0909 24 19.4109 24C20.7309 24 21.8109 22.92 21.8109 21.6C21.8109 20.28 20.7309 19.2 19.4109 19.2Z" fill="white"/>
</svg>
