<svg width="24" height="24" viewBox="0 0 24 24" fill="none" xmlns="http://www.w3.org/2000/svg">
<path fill-rule="evenodd" clip-rule="evenodd" d="M22.6754 0H1.32457C0.592955 0 0 0.592955 0 1.32457V22.6754C0 23.407 0.592955 24.0001 1.32457 24.0001H12.8192V14.706H9.69149V11.0839H12.8192V8.41269C12.8192 5.31285 14.7124 3.6249 17.4778 3.6249C18.8024 3.6249 19.9409 3.72346 20.2726 3.76752V7.0071L18.3547 7.008C16.8508 7.008 16.5596 7.72262 16.5596 8.7713V11.0839H20.1463L19.6794 14.706H16.5596V24.0001H22.6754C23.407 24.0001 24 23.407 24 22.6754V1.32457C24 0.592955 23.407 0 22.6754 0Z" fill="#3B5998"/>
</svg>
