<svg width="28" height="24" viewBox="0 0 28 24" fill="none" xmlns="http://www.w3.org/2000/svg">
<path d="M24.0234 1.3473C20.433 -1.10072 15.9993 0.04169 13.6057 2.84331C11.2121 0.04169 6.77846 -1.11432 3.18803 1.3473C1.28401 2.65291 0.0872032 4.85613 0.00560253 7.18175C-0.184799 12.4586 4.49364 16.6882 11.6337 23.1755L11.7697 23.2979C12.8033 24.2363 14.3945 24.2363 15.4281 23.2843L15.5777 23.1483C22.7178 16.6746 27.3826 12.445 27.2058 7.16815C27.1242 4.85613 25.9274 2.65291 24.0234 1.3473ZM13.7417 21.1491L13.6057 21.2851L13.4697 21.1491C6.99606 15.2874 2.72563 11.4114 2.72563 7.48095C2.72563 4.76093 4.76564 2.72091 7.48566 2.72091C9.58008 2.72091 11.6201 4.06732 12.3409 5.93054H14.8841C15.5913 4.06732 17.6313 2.72091 19.7258 2.72091C22.4458 2.72091 24.4858 4.76093 24.4858 7.48095C24.4858 11.4114 20.2154 15.2874 13.7417 21.1491Z" fill="#263238"/>
</svg>
