<svg width="21" height="18" viewBox="0 0 21 18" fill="none" xmlns="http://www.w3.org/2000/svg">
<path d="M18.0176 1.01048C15.3247 -0.82554 11.9995 0.0312675 10.2043 2.13249C8.40907 0.0312675 5.08384 -0.83574 2.39102 1.01048C0.96301 1.98968 0.0654024 3.6421 0.0042019 5.38631C-0.138599 9.34395 3.37023 12.5162 8.72528 17.3816L8.82728 17.4734C9.60248 18.1772 10.7959 18.1772 11.5711 17.4632L11.6833 17.3612C17.0383 12.506 20.537 9.33375 20.4044 5.37611C20.3432 3.6421 19.4456 1.98968 18.0176 1.01048ZM10.3063 15.8618L10.2043 15.9638L10.1023 15.8618C5.24705 11.4656 2.04422 8.55854 2.04422 5.61071C2.04422 3.5707 3.57423 2.04068 5.61425 2.04068C7.18506 2.04068 8.71507 3.05049 9.25568 4.4479H11.1631C11.6935 3.05049 13.2235 2.04068 14.7943 2.04068C16.8343 2.04068 18.3644 3.5707 18.3644 5.61071C18.3644 8.55854 15.1615 11.4656 10.3063 15.8618Z" fill="#0C56E9"/>
</svg>
