<svg width="82" height="82" viewBox="0 0 82 82" fill="none" xmlns="http://www.w3.org/2000/svg">
<g filter="url(#filter0_d)">
<circle cx="41" cy="37" r="24" fill="#E9F0F7"/>
</g>
<path d="M51.2133 27.3199C47.6933 24.9199 43.3466 26.0399 41 28.7866C38.6533 26.0399 34.3066 24.9066 30.7866 27.3199C28.92 28.5999 27.7466 30.7599 27.6666 33.0399C27.48 38.2132 32.0666 42.3599 39.0666 48.7199L39.2 48.8399C40.2133 49.7599 41.7733 49.7599 42.7866 48.8266L42.9333 48.6932C49.9333 42.3466 54.5066 38.1999 54.3333 33.0266C54.2533 30.7599 53.08 28.5999 51.2133 27.3199ZM41.1333 46.7332L41 46.8666L40.8666 46.7332C34.52 40.9866 30.3333 37.1866 30.3333 33.3332C30.3333 30.6666 32.3333 28.6666 35 28.6666C37.0533 28.6666 39.0533 29.9866 39.76 31.8132H42.2533C42.9466 29.9866 44.9466 28.6666 47 28.6666C49.6666 28.6666 51.6666 30.6666 51.6666 33.3332C51.6666 37.1866 47.48 40.9866 41.1333 46.7332Z" fill="#364B63"/>
<defs>
<filter id="filter0_d" x="0" y="0" width="82" height="82" filterUnits="userSpaceOnUse" color-interpolation-filters="sRGB">
<feFlood flood-opacity="0" result="BackgroundImageFix"/>
<feColorMatrix in="SourceAlpha" type="matrix" values="0 0 0 0 0 0 0 0 0 0 0 0 0 0 0 0 0 0 127 0"/>
<feOffset dy="4"/>
<feGaussianBlur stdDeviation="8.5"/>
<feColorMatrix type="matrix" values="0 0 0 0 0.1585 0 0 0 0 0.4195 0 0 0 0 0.9415 0 0 0 0.08 0"/>
<feBlend mode="normal" in2="BackgroundImageFix" result="effect1_dropShadow"/>
<feBlend mode="normal" in="SourceGraphic" in2="effect1_dropShadow" result="shape"/>
</filter>
</defs>
</svg>
