<svg width="24" height="25" viewBox="0 0 24 25" fill="none" xmlns="http://www.w3.org/2000/svg">
<g clip-path="url(#clip0)">
<mask id="mask0" mask-type="alpha" maskUnits="userSpaceOnUse" x="0" y="0" width="24" height="25">
<path d="M23.7209 10.211H12.2791V15.0328H18.8651C18.2512 18.0961 15.6837 19.8546 12.2791 19.8546C8.26047 19.8546 5.02326 16.5644 5.02326 12.4801C5.02326 8.3957 8.26047 5.10552 12.2791 5.10552C14.0093 5.10552 15.5721 5.72952 16.8 6.75061L20.3721 3.12006C18.1953 1.19133 15.4047 6.10352e-05 12.2791 6.10352e-05C5.46977 6.10352e-05 0 5.55933 0 12.4801C0 19.4008 5.46977 24.9601 12.2791 24.9601C18.4186 24.9601 24 20.4219 24 12.4801C24 11.7426 23.8884 10.9484 23.7209 10.211Z" fill="white"/>
</mask>
<g mask="url(#mask0)">
<path fill-rule="evenodd" clip-rule="evenodd" d="M-1.11621 19.8546V5.10553L8.37216 12.4801L-1.11621 19.8546Z" fill="#FBBC05"/>
</g>
<mask id="mask1" mask-type="alpha" maskUnits="userSpaceOnUse" x="0" y="0" width="24" height="25">
<path d="M23.7209 10.211H12.2791V15.0328H18.8651C18.2512 18.0961 15.6837 19.8546 12.2791 19.8546C8.26047 19.8546 5.02326 16.5644 5.02326 12.4801C5.02326 8.3957 8.26047 5.10552 12.2791 5.10552C14.0093 5.10552 15.5721 5.72952 16.8 6.75061L20.3721 3.12006C18.1953 1.19133 15.4047 6.10352e-05 12.2791 6.10352e-05C5.46977 6.10352e-05 0 5.55933 0 12.4801C0 19.4008 5.46977 24.9601 12.2791 24.9601C18.4186 24.9601 24 20.4219 24 12.4801C24 11.7426 23.8884 10.9484 23.7209 10.211Z" fill="white"/>
</mask>
<g mask="url(#mask1)">
<path fill-rule="evenodd" clip-rule="evenodd" d="M-1.11621 5.10554L8.37216 12.4801L12.2791 9.01972L25.6745 6.80736V-1.13446H-1.11621V5.10554Z" fill="#EA4335"/>
</g>
<mask id="mask2" mask-type="alpha" maskUnits="userSpaceOnUse" x="0" y="0" width="24" height="25">
<path d="M23.7209 10.211H12.2791V15.0328H18.8651C18.2512 18.0961 15.6837 19.8546 12.2791 19.8546C8.26047 19.8546 5.02326 16.5644 5.02326 12.4801C5.02326 8.3957 8.26047 5.10552 12.2791 5.10552C14.0093 5.10552 15.5721 5.72952 16.8 6.75061L20.3721 3.12006C18.1953 1.19133 15.4047 6.10352e-05 12.2791 6.10352e-05C5.46977 6.10352e-05 0 5.55933 0 12.4801C0 19.4008 5.46977 24.9601 12.2791 24.9601C18.4186 24.9601 24 20.4219 24 12.4801C24 11.7426 23.8884 10.9484 23.7209 10.211Z" fill="white"/>
</mask>
<g mask="url(#mask2)">
<path fill-rule="evenodd" clip-rule="evenodd" d="M-1.11621 19.8546L15.628 6.80736L20.0373 7.37463L25.6745 -1.13446V26.0946H-1.11621V19.8546Z" fill="#34A853"/>
</g>
<mask id="mask3" mask-type="alpha" maskUnits="userSpaceOnUse" x="0" y="0" width="24" height="25">
<path d="M23.7209 10.211H12.2791V15.0328H18.8651C18.2512 18.0961 15.6837 19.8546 12.2791 19.8546C8.26047 19.8546 5.02326 16.5644 5.02326 12.4801C5.02326 8.3957 8.26047 5.10552 12.2791 5.10552C14.0093 5.10552 15.5721 5.72952 16.8 6.75061L20.3721 3.12006C18.1953 1.19133 15.4047 6.10352e-05 12.2791 6.10352e-05C5.46977 6.10352e-05 0 5.55933 0 12.4801C0 19.4008 5.46977 24.9601 12.2791 24.9601C18.4186 24.9601 24 20.4219 24 12.4801C24 11.7426 23.8884 10.9484 23.7209 10.211Z" fill="white"/>
</mask>
<g mask="url(#mask3)">
<path fill-rule="evenodd" clip-rule="evenodd" d="M25.6745 26.0946L8.37221 12.4801L6.13965 10.7783L25.6745 5.10553V26.0946Z" fill="#4285F4"/>
</g>
</g>
<defs>
<clipPath id="clip0">
<rect width="24" height="24.96" fill="white"/>
</clipPath>
</defs>
</svg>
