<svg width="32" height="32" viewBox="0 0 32 32" fill="none" xmlns="http://www.w3.org/2000/svg">
<path d="M15.9998 29.3332C23.3636 29.3332 29.3332 23.3636 29.3332 15.9998C29.3332 8.63604 23.3636 2.6665 15.9998 2.6665C8.63604 2.6665 2.6665 8.63604 2.6665 15.9998C2.6665 23.3636 8.63604 29.3332 15.9998 29.3332Z" stroke="#263238" stroke-width="2" stroke-linecap="round" stroke-linejoin="round"/>
<path d="M12.1201 11.9998C12.4336 11.1087 13.0523 10.3573 13.8667 9.87863C14.6811 9.39999 15.6386 9.22503 16.5697 9.38473C17.5007 9.54443 18.3452 10.0285 18.9536 10.7512C19.5619 11.4738 19.8949 12.3885 19.8934 13.3331C19.8934 15.9998 15.8935 17.3331 15.8935 17.3331" stroke="#263238" stroke-width="2" stroke-linecap="round" stroke-linejoin="round"/>
<path d="M16 22.6665H16.0133" stroke="#263238" stroke-width="2" stroke-linecap="round" stroke-linejoin="round"/>
</svg>
