<svg width="40" height="40" viewBox="0 0 40 40" fill="none" xmlns="http://www.w3.org/2000/svg">
<circle cx="20" cy="20" r="20" fill="#0C56E9"/>
<mask id="mask0" mask-type="alpha" maskUnits="userSpaceOnUse" x="8" y="8" width="24" height="24">
<path fill-rule="evenodd" clip-rule="evenodd" d="M8 31.995H32V8H8V31.995Z" fill="white"/>
</mask>
<g mask="url(#mask0)">
<path fill-rule="evenodd" clip-rule="evenodd" d="M28.9715 14.3888C28.9715 14.7416 28.678 15.0277 28.3161 15.0277H25.0393C24.6774 15.0277 24.3839 14.7416 24.3839 14.3888V11.1943C24.3839 10.8415 24.6774 10.5554 25.0393 10.5554H28.3161C28.678 10.5554 28.9715 10.8415 28.9715 11.1943V14.3888ZM28.9714 27.8058C28.9714 28.1586 28.678 28.4446 28.316 28.4446H11.2768C10.9148 28.4446 10.6214 28.1586 10.6214 27.8058V17.5835H12.8589C12.6822 18.1928 12.5875 18.8358 12.5875 19.5002C12.5875 23.3815 15.815 26.528 19.7964 26.528C23.7778 26.528 27.0053 23.3815 27.0053 19.5002C27.0053 18.8358 26.9106 18.1928 26.7338 17.5835H28.9714V27.8058ZM19.7964 15.028C22.33 15.028 24.3839 17.0302 24.3839 19.5002C24.3839 21.9701 22.33 23.9724 19.7964 23.9724C17.2628 23.9724 15.2089 21.9701 15.2089 19.5002C15.2089 17.0302 17.2628 15.028 19.7964 15.028ZM28.3161 8H11.2768C9.4671 8 8 9.43023 8 11.1944V27.8056C8 29.5698 9.4671 31 11.2768 31H28.3161C30.1258 31 31.5929 29.5698 31.5929 27.8056V11.1944C31.5929 9.43023 30.1258 8 28.3161 8Z" fill="white"/>
</g>
</svg>
