<svg width="40" height="40" viewBox="0 0 40 40" fill="none" xmlns="http://www.w3.org/2000/svg">
<circle cx="20" cy="20" r="20" fill="#0C56E9"/>
<path d="M29.829 8H10.171C8.972 8 8 8.972 8 10.171V29.8289C8 31.028 8.972 32 10.171 32H29.8289C31.028 32 32 31.028 32 29.8289V10.171C32 8.972 31.028 8 29.829 8ZM15.4266 28.7232C15.4266 29.0721 15.1438 29.355 14.7948 29.355H12.1054C11.7565 29.355 11.4737 29.0721 11.4737 28.7232V17.4494C11.4737 17.1005 11.7565 16.8176 12.1054 16.8176H14.7948C15.1438 16.8176 15.4266 17.1005 15.4266 17.4494V28.7232ZM13.4501 15.7549C12.0391 15.7549 10.8952 14.611 10.8952 13.2C10.8952 11.7889 12.0391 10.645 13.4501 10.645C14.8612 10.645 16.0051 11.7889 16.0051 13.2C16.0051 14.611 14.8612 15.7549 13.4501 15.7549ZM29.4813 28.7741C29.4813 29.0949 29.2212 29.355 28.9004 29.355H26.0145C25.6937 29.355 25.4335 29.0949 25.4335 28.7741V23.486C25.4335 22.6972 25.6649 20.0292 23.372 20.0292C21.5934 20.0292 21.2327 21.8553 21.1602 22.6749V28.7741C21.1602 29.0949 20.9002 29.355 20.5793 29.355H17.7882C17.4674 29.355 17.2073 29.0949 17.2073 28.7741V17.3985C17.2073 17.0777 17.4674 16.8176 17.7882 16.8176H20.5793C20.9001 16.8176 21.1602 17.0777 21.1602 17.3985V18.3821C21.8197 17.3924 22.7998 16.6284 24.8866 16.6284C29.5077 16.6284 29.4813 20.9457 29.4813 23.3178V28.7741Z" fill="white"/>
</svg>
