<svg width="52" height="52" viewBox="0 0 52 52" fill="none" xmlns="http://www.w3.org/2000/svg">
<path d="M19.0657 28.1194C19.0767 28.8318 18.9462 29.5393 18.6818 30.2007C18.4173 30.862 18.0242 31.4641 17.5254 31.9718C17.0265 32.4795 16.4318 32.8827 15.7759 33.1579C15.1201 33.4332 14.4161 33.5749 13.705 33.5749C12.994 33.5749 12.29 33.4332 11.6342 33.1579C10.9783 32.8827 10.3836 32.4795 9.88472 31.9718C9.38584 31.4641 8.99274 30.862 8.7283 30.2007C8.46386 29.5393 8.33336 28.8318 8.3444 28.1194C8.3444 25.1523 13.7328 17.8621 13.7328 17.8621C13.7328 17.8621 19.0657 25.1523 19.0657 28.1194Z" fill="white"/>
<path d="M42.9114 28.1194C42.9114 29.5448 42.3462 30.9119 41.3403 31.9198C40.3344 32.9278 38.9701 33.4941 37.5475 33.4941C36.1249 33.4941 34.7606 32.9278 33.7546 31.9198C32.7487 30.9119 32.1836 29.5448 32.1836 28.1194C32.1836 25.1523 37.5733 17.8621 37.5733 17.8621C37.5733 17.8621 42.9114 25.1523 42.9114 28.1194Z" fill="white"/>
<path d="M25.6502 7.48403C27.6018 10.3048 30.0783 14.4543 30.0783 16.1742C30.0783 17.3572 29.6093 18.4917 28.7745 19.3281C27.9397 20.1646 26.8075 20.6346 25.6269 20.6346C24.4463 20.6346 23.3141 20.1646 22.4793 19.3281C21.6445 18.4917 21.1755 17.3572 21.1755 16.1742C21.1755 14.4569 23.6791 10.3061 25.6502 7.48403ZM25.6502 5.91695C25.6502 5.91695 20.2617 13.2071 20.2617 16.1742C20.2617 17.5997 20.8268 18.9667 21.8328 19.9747C22.8387 20.9826 24.203 21.5489 25.6256 21.5489C27.0482 21.5489 28.4125 20.9826 29.4184 19.9747C30.4244 18.9667 30.9895 17.5997 30.9895 16.1742C30.9895 13.2071 25.6553 5.91695 25.6553 5.91695H25.6502Z" fill="white"/>
<path d="M30.9875 40.0639C30.9875 40.7697 30.8488 41.4686 30.5792 42.1207C30.3097 42.7727 29.9146 43.3653 29.4165 43.8643C28.9184 44.3634 28.3271 44.7593 27.6763 45.0294C27.0255 45.2995 26.328 45.4386 25.6236 45.4386C24.9193 45.4386 24.2218 45.2995 23.571 45.0294C22.9202 44.7593 22.3289 44.3634 21.8308 43.8643C21.3327 43.3653 20.9376 42.7727 20.6681 42.1207C20.3985 41.4686 20.2598 40.7697 20.2598 40.0639C20.2598 37.0981 25.6482 29.8079 25.6482 29.8079C25.6482 29.8079 30.9875 37.0981 30.9875 40.0639Z" fill="white"/>
<path d="M25.6251 2.88809C30.1224 2.89018 34.5182 4.22797 38.257 6.73241C41.9958 9.23686 44.9098 12.7956 46.6309 16.9589C48.352 21.1222 48.8029 25.7033 47.9266 30.1233C47.0504 34.5433 44.8862 38.6038 41.7077 41.7919C39.6118 43.9793 37.1014 45.7257 34.3235 46.9288C31.5456 48.1319 28.556 48.7675 25.5299 48.7983C22.5037 48.8292 19.5019 48.2547 16.7001 47.1086C13.8983 45.9624 11.3529 44.2676 9.21302 42.1233C7.07311 39.9791 5.3817 37.4286 4.23783 34.6212C3.09397 31.8137 2.52065 28.8058 2.55146 25.7736C2.58227 22.7413 3.21658 19.7457 4.41725 16.9622C5.61791 14.1787 7.3608 11.6632 9.54383 9.56308C11.6506 7.44013 14.1567 5.75705 16.9171 4.61127C19.6775 3.4655 22.6373 2.8798 25.6251 2.88809ZM25.6251 0C11.4735 0 0 11.4954 0 25.6768C0 39.8583 11.4735 51.3536 25.6251 51.3536C39.7767 51.3536 51.2503 39.8583 51.2503 25.6768C51.2503 11.4954 39.778 0 25.6251 0Z" fill="white"/>
</svg>
