<svg width="268" height="52" viewBox="0 0 268 52" fill="none" xmlns="http://www.w3.org/2000/svg">
<path d="M19.0657 28.1194C19.0767 28.8318 18.9462 29.5393 18.6818 30.2007C18.4173 30.862 18.0242 31.4641 17.5254 31.9718C17.0265 32.4795 16.4318 32.8827 15.7759 33.1579C15.1201 33.4332 14.4161 33.5749 13.705 33.5749C12.994 33.5749 12.29 33.4332 11.6342 33.1579C10.9783 32.8827 10.3836 32.4795 9.88472 31.9718C9.38584 31.4641 8.99274 30.862 8.7283 30.2007C8.46386 29.5393 8.33336 28.8318 8.3444 28.1194C8.3444 25.1523 13.7328 17.8621 13.7328 17.8621C13.7328 17.8621 19.0657 25.1523 19.0657 28.1194Z" fill="white"/>
<path d="M42.9114 28.1194C42.9114 29.5448 42.3462 30.9119 41.3403 31.9198C40.3344 32.9278 38.9701 33.4941 37.5475 33.4941C36.1249 33.4941 34.7606 32.9278 33.7546 31.9198C32.7487 30.9119 32.1836 29.5448 32.1836 28.1194C32.1836 25.1523 37.5733 17.8621 37.5733 17.8621C37.5733 17.8621 42.9114 25.1523 42.9114 28.1194Z" fill="white"/>
<path d="M25.6502 7.48403C27.6018 10.3048 30.0783 14.4543 30.0783 16.1742C30.0783 17.3572 29.6093 18.4917 28.7745 19.3281C27.9397 20.1646 26.8075 20.6346 25.6269 20.6346C24.4463 20.6346 23.3141 20.1646 22.4793 19.3281C21.6445 18.4917 21.1755 17.3572 21.1755 16.1742C21.1755 14.4569 23.6791 10.3061 25.6502 7.48403ZM25.6502 5.91695C25.6502 5.91695 20.2617 13.2071 20.2617 16.1742C20.2617 17.5997 20.8268 18.9667 21.8328 19.9747C22.8387 20.9826 24.203 21.5489 25.6256 21.5489C27.0482 21.5489 28.4125 20.9826 29.4184 19.9747C30.4244 18.9667 30.9895 17.5997 30.9895 16.1742C30.9895 13.2071 25.6553 5.91695 25.6553 5.91695H25.6502Z" fill="white"/>
<path d="M30.9875 40.0639C30.9875 40.7697 30.8488 41.4686 30.5792 42.1207C30.3097 42.7727 29.9146 43.3653 29.4165 43.8643C28.9184 44.3634 28.3271 44.7593 27.6763 45.0294C27.0255 45.2995 26.328 45.4386 25.6236 45.4386C24.9193 45.4386 24.2218 45.2995 23.571 45.0294C22.9202 44.7593 22.3289 44.3634 21.8308 43.8643C21.3327 43.3653 20.9376 42.7727 20.6681 42.1207C20.3985 41.4686 20.2598 40.7697 20.2598 40.0639C20.2598 37.0981 25.6482 29.8079 25.6482 29.8079C25.6482 29.8079 30.9875 37.0981 30.9875 40.0639Z" fill="white"/>
<path d="M25.6251 2.88809C30.1224 2.89018 34.5182 4.22797 38.257 6.73241C41.9958 9.23686 44.9098 12.7956 46.6309 16.9589C48.352 21.1222 48.8029 25.7033 47.9266 30.1233C47.0504 34.5433 44.8862 38.6038 41.7077 41.7919C39.6118 43.9793 37.1014 45.7257 34.3235 46.9288C31.5456 48.1319 28.556 48.7675 25.5299 48.7983C22.5037 48.8292 19.5019 48.2547 16.7001 47.1086C13.8983 45.9624 11.3529 44.2676 9.21302 42.1233C7.07311 39.9791 5.3817 37.4286 4.23783 34.6212C3.09397 31.8137 2.52065 28.8058 2.55146 25.7736C2.58227 22.7413 3.21658 19.7457 4.41725 16.9622C5.61791 14.1787 7.3608 11.6632 9.54383 9.56308C11.6506 7.44013 14.1567 5.75705 16.9171 4.61127C19.6775 3.4655 22.6373 2.8798 25.6251 2.88809ZM25.6251 0C11.4735 0 0 11.4954 0 25.6768C0 39.8583 11.4735 51.3536 25.6251 51.3536C39.7767 51.3536 51.2503 39.8583 51.2503 25.6768C51.2503 11.4954 39.778 0 25.6251 0Z" fill="white"/>
<path d="M61.0078 13.2621H65.1473L69.3692 31.1083H69.433L74.1311 13.2621H78.3006L82.8544 31.1083H82.9181L87.2676 13.2621H91.407L84.9729 36.5936H80.8353L76.1859 18.7475H76.1052L71.3434 36.5936H67.1383L61.0078 13.2621Z" fill="white"/>
<path d="M105.966 32.8345C105.945 33.7112 106.23 34.1376 106.821 34.1138C107.117 34.1081 107.413 34.0868 107.706 34.05V36.6217C106.978 36.8891 106.21 37.0338 105.434 37.05C104.799 37.0733 104.171 36.9122 103.625 36.586C103.139 36.2579 102.814 35.7262 102.65 34.9911C101.91 35.6934 101.02 36.2171 100.048 36.5221C99.0578 36.8648 98.0187 37.0431 96.9713 37.05C95.5721 37.0785 94.203 36.6404 93.0793 35.8045C91.9657 34.9754 91.3989 33.7438 91.3789 32.1094C91.3789 31.0462 91.5664 30.182 91.9413 29.5114C92.28 28.8816 92.7896 28.3606 93.4111 28.0086C94.052 27.6563 94.7331 27.3831 95.4396 27.1952C96.1827 27.0457 96.9339 26.9397 97.6893 26.8777C98.3718 26.7406 99.0017 26.6297 99.5941 26.5452C100.115 26.4925 100.632 26.4078 101.143 26.2916C102.091 26.0925 102.576 25.497 102.597 24.5051C102.577 23.5583 102.203 22.9321 101.473 22.6265C100.754 22.355 99.9901 22.2274 99.2229 22.2508C98.1918 22.2508 97.3725 22.4569 96.7651 22.8689C96.1052 23.3222 95.724 24.0023 95.6215 24.909H92.0032C92.0957 23.7969 92.3625 22.8751 92.8037 22.1438C93.2211 21.4515 93.8001 20.8713 94.491 20.4531C95.9183 19.6816 97.5619 19.3059 99.4216 19.326C100.978 19.2947 102.517 19.6613 103.893 20.3911C105.219 21.1538 105.906 22.4255 105.955 24.2064L105.966 32.8345ZM102.371 28.1269C101.752 28.4714 101.074 28.6946 100.372 28.7844C99.566 28.8896 98.7492 29.0067 97.9218 29.1357C97.1959 29.2244 96.5007 29.4817 95.8915 29.8871C95.2828 30.3041 94.9784 30.9929 94.9784 31.9535C94.9991 32.765 95.4003 33.3248 96.1877 33.6348C96.8461 33.9637 97.5743 34.1281 98.3099 34.1138C98.7606 34.1111 99.2089 34.048 99.6428 33.926C100.099 33.7923 100.536 33.603 100.946 33.3624C101.36 33.1128 101.719 32.7803 101.999 32.3856C102.262 31.9403 102.392 31.4294 102.374 30.9128L102.371 28.1269Z" fill="white"/>
<path d="M108.782 19.6865H111.512V14.6276H115.11V19.6865H118.362V22.4668H115.11V31.5025C115.088 32.254 115.181 32.8288 115.387 33.227C115.603 33.6197 116.092 33.8169 116.851 33.8169C117.358 33.8388 117.866 33.7959 118.362 33.6892V36.5558C117.586 36.6613 116.805 36.724 116.023 36.7437C114.218 36.7236 113.012 36.3567 112.406 35.6428C111.8 34.929 111.502 33.8595 111.512 32.4343V22.4668H108.782V19.6865Z" fill="white"/>
<path d="M124.092 29.1001C124.092 30.4564 124.452 31.6155 125.172 32.5773C125.902 33.5792 127.007 34.092 128.488 34.1158C130.544 34.1158 131.871 33.1765 132.468 31.298H135.877C135.455 33.1252 134.58 34.5385 133.252 35.5378C131.903 36.526 130.314 37.0307 128.484 37.052C125.913 37.0094 123.944 36.1715 122.577 34.5385C121.188 32.9267 120.494 30.8121 120.494 28.1946C120.494 25.7125 121.209 23.6241 122.639 21.9297C124.026 20.2227 125.944 19.3461 128.393 19.2997C131.025 19.3411 133.035 20.3342 134.424 22.2791C135.822 24.1827 136.378 26.4551 136.09 29.0963L124.092 29.1001ZM132.496 26.6467C132.46 25.5155 132.047 24.4291 131.323 23.5603C130.603 22.6999 129.625 22.2616 128.391 22.2453C127.147 22.2653 126.135 22.6855 125.355 23.5058C124.597 24.3236 124.176 25.3731 124.092 26.6542L132.496 26.6467Z" fill="white"/>
<path d="M139.433 19.6867H142.807V22.9403H142.869C143.125 22.0048 143.706 21.162 144.613 20.4118C145.465 19.7059 146.533 19.3147 147.638 19.3035C148.093 19.3026 148.546 19.3346 148.996 19.3993V22.9685L148.246 22.8408C148 22.8201 147.738 22.8088 147.46 22.8088C146.861 22.7971 146.268 22.9228 145.725 23.1765C145.182 23.4301 144.704 23.8049 144.328 24.2722C143.484 25.2741 143.052 26.7055 143.03 28.5666V36.5823H139.433V19.6867Z" fill="white"/>
<path d="M159.153 13.7682H163.347L172.031 37.0997H167.805L165.692 30.9231H156.684L154.571 37.0997H150.499L159.153 13.7682ZM157.764 27.8254H164.644L161.27 17.7846H161.176L157.764 27.8254Z" fill="white"/>
<path d="M174.47 13.7682H178.066V37.0997H174.47V13.7682Z" fill="white"/>
<path d="M182.338 13.7682H185.934V37.0997H182.338V13.7682Z" fill="white"/>
<path d="M190.207 13.7682H193.803V17.2774H190.207V13.7682ZM190.207 20.1985H193.803V37.1054H190.207V20.1985Z" fill="white"/>
<path d="M211.656 33.3464C211.636 34.223 211.921 34.6501 212.511 34.6275C212.806 34.6218 213.102 34.6005 213.395 34.5637V37.1335C212.667 37.4018 211.899 37.5465 211.123 37.5618C210.488 37.5849 209.86 37.4244 209.314 37.0997C208.829 36.7716 208.504 36.2393 208.339 35.5029C207.601 36.2037 206.713 36.7262 205.743 37.0302C204.752 37.3724 203.712 37.5501 202.664 37.5562C201.264 37.5892 199.892 37.1543 198.765 36.3201C197.651 35.491 197.084 34.2587 197.064 32.6231C197.064 31.5611 197.252 30.6957 197.627 30.027C197.964 29.3928 198.473 28.8677 199.097 28.5129C199.737 28.1604 200.419 27.8879 201.125 27.7013C201.868 27.5512 202.619 27.4446 203.375 27.382C204.057 27.2449 204.687 27.134 205.28 27.0495C205.801 26.9983 206.318 26.9142 206.828 26.7978C207.777 26.5961 208.262 26.0006 208.283 25.0113C208.263 24.0632 207.888 23.4371 207.158 23.1327C206.44 22.8612 205.676 22.7336 204.908 22.757C203.877 22.757 203.058 22.9624 202.451 23.3732C201.791 23.8278 201.41 24.5085 201.307 25.4152H197.693C197.785 24.3031 198.052 23.3813 198.493 22.6499C198.91 21.9545 199.489 21.3711 200.18 20.9499C201.609 20.1759 203.253 19.8002 205.113 19.8227C206.671 19.7854 208.212 20.1475 209.592 20.8747C210.918 21.6374 211.605 22.9092 211.654 24.69L211.656 33.3464ZM208.06 28.6406C207.441 28.9842 206.763 29.2067 206.061 29.2962C205.255 29.4027 204.439 29.5204 203.611 29.6494C202.885 29.7372 202.19 29.9946 201.581 30.4008C200.972 30.8178 200.668 31.5066 200.668 32.4672C200.688 33.2768 201.09 33.8385 201.875 34.1466C202.534 34.476 203.263 34.641 203.999 34.6275C204.45 34.6249 204.898 34.5617 205.332 34.4397C205.791 34.3066 206.232 34.1173 206.644 33.8761C207.056 33.6256 207.412 33.2924 207.689 32.8974C207.951 32.452 208.081 31.9412 208.064 31.4246L208.06 28.6406Z" fill="white"/>
<path d="M216.119 20.1987H219.527V22.7535L219.589 22.8193C220.752 20.8619 222.449 19.86 224.681 19.8136C228.446 19.8362 230.374 21.7441 230.467 25.5375V37.0981H226.869V26.5106C226.828 23.9784 225.762 22.7229 223.671 22.7442C222.456 22.7654 221.508 23.1894 220.829 24.0159C220.077 24.8873 219.68 26.0096 219.715 27.1606V37.0924H216.119V20.1987Z" fill="white"/>
<path d="M245.852 25.9152C245.477 23.8288 244.232 22.7743 242.117 22.7517C241.629 22.7574 241.143 22.8205 240.67 22.9396C240.121 23.128 239.624 23.4441 239.221 23.8619C238.717 24.3856 238.338 25.0161 238.111 25.7067C237.792 26.5119 237.633 27.5664 237.633 28.8701C237.612 30.2425 237.964 31.5947 238.653 32.7813C239.32 33.991 240.425 34.606 241.967 34.626C244.138 34.5834 245.434 33.306 245.856 30.7938H249.448C248.728 35.2634 246.234 37.5177 241.965 37.5565C239.396 37.5152 237.447 36.678 236.12 35.0449C234.73 33.4331 234.036 31.3711 234.037 28.8589C234.037 26.2515 234.725 24.0993 236.099 22.4023C237.424 20.6966 239.424 19.8325 242.099 19.8099C244.053 19.8099 245.714 20.2984 247.082 21.2752C248.456 22.2771 249.248 23.8219 249.457 25.9096L245.852 25.9152Z" fill="white"/>
<path d="M255.774 29.614C255.774 30.9703 256.134 32.1288 256.854 33.0893C257.583 34.0912 258.688 34.6041 260.171 34.6279C262.225 34.6279 263.552 33.6886 264.149 31.81H267.557C267.136 33.6385 266.261 35.0518 264.933 36.0499C263.587 37.038 261.998 37.5427 260.167 37.564C257.602 37.5214 255.633 36.6836 254.258 35.0505C252.87 33.4387 252.177 31.3235 252.177 28.7048C252.177 26.2252 252.891 24.1368 254.32 22.4399C255.708 20.7342 257.626 19.8575 260.073 19.8099C262.708 19.8525 264.719 20.8463 266.106 22.7912C267.504 24.6935 268.059 26.9659 267.773 29.6084L255.774 29.614ZM264.177 27.1588C264.142 26.0283 263.729 24.9422 263.005 24.0742C262.285 23.2139 261.308 22.7755 260.073 22.7592C258.831 22.7805 257.819 23.2001 257.038 24.0179C256.277 24.8369 255.856 25.8864 255.774 27.1663L264.177 27.1588Z" fill="white"/>
</svg>
