<svg width="48" height="32" viewBox="0 0 48 32" fill="none" xmlns="http://www.w3.org/2000/svg">
<path d="M30.3331 5.5752H17.6709V26.4212H30.3331V5.5752Z" fill="#FF5F00"/>
<path d="M18.9747 15.9999C18.9732 13.9926 19.4246 12.0113 20.2949 10.2058C21.1651 8.40033 22.4314 6.81806 23.9979 5.57873C22.0578 4.04178 19.7277 3.08604 17.2741 2.82074C14.8206 2.55545 12.3424 2.9913 10.123 4.07849C7.90351 5.16568 6.03228 6.86034 4.72313 8.96878C3.41398 11.0772 2.71973 13.5144 2.71973 16.0017C2.71973 18.4891 3.41398 20.9263 4.72313 23.0347C6.03228 25.1432 7.90351 26.8378 10.123 27.925C12.3424 29.0122 14.8206 29.448 17.2741 29.1827C19.7277 28.9174 22.0578 27.9617 23.9979 26.4248C22.431 25.185 21.1644 23.6022 20.2941 21.796C19.4238 19.9899 18.9726 18.0078 18.9747 15.9999Z" fill="#EB001B"/>
<path d="M44.0216 24.2155V23.7883H44.2043V23.7H43.7695V23.7883H43.9412V24.2155H44.0216ZM44.8655 24.2155V23.7H44.734L44.5806 24.0682L44.4271 23.7H44.2956V24.2155H44.3906V23.8252L44.5331 24.1603H44.6317L44.7742 23.8252V24.2155H44.8655Z" fill="#F79E1B"/>
<path d="M45.2787 16C45.2786 18.4875 44.5842 20.9248 43.2748 23.0334C41.9655 25.1419 40.0939 26.8365 37.8742 27.9235C35.6545 29.0106 33.1761 29.4461 30.7224 29.1805C28.2686 28.9148 25.9386 27.9586 23.9985 26.4212C25.5644 25.1807 26.8304 23.598 27.7009 21.7925C28.5714 19.9869 29.0237 18.0056 29.0237 15.9981C29.0237 13.9907 28.5714 12.0094 27.7009 10.2038C26.8304 8.39828 25.5644 6.81557 23.9985 5.57513C25.9386 4.0377 28.2686 3.0815 30.7224 2.81582C33.1761 2.55015 35.6545 2.98572 37.8742 4.07275C40.0939 5.15979 41.9655 6.85442 43.2748 8.96293C44.5842 11.0715 45.2786 13.5088 45.2787 15.9963V16Z" fill="#F79E1B"/>
</svg>
