<svg width="29" height="25" viewBox="0 0 29 25" fill="none" xmlns="http://www.w3.org/2000/svg">
<path d="M28.9594 14.1074C28.9593 14.1073 28.9593 14.1072 28.9592 14.1071L23.4839 0.358977C23.3677 0.0668657 23.0366 -0.0757386 22.7445 0.0404654C22.7443 0.0405366 22.744 0.0406077 22.7438 0.04075L0.531137 8.88563C0.440551 8.92477 0.36199 8.98725 0.303426 9.06666C0.118695 9.16266 0.00199248 9.35265 0 9.5608V24.362C0 24.6764 0.254895 24.9313 0.569279 24.9313H24.479C24.7934 24.9313 25.0483 24.6764 25.0483 24.362V16.2783L28.6416 14.8471C28.9336 14.7306 29.0758 14.3995 28.9594 14.1074ZM23.9097 23.7928H1.13856V10.1301H23.9097V23.7928ZM9.49842 8.99436L19.0304 5.19614C19.8811 6.09033 21.0599 6.59856 22.2941 6.60339L23.2448 8.99436H9.49842ZM25.0483 15.0555V9.5608C25.0483 9.24641 24.7934 8.99152 24.479 8.99152H24.4699L23.2636 5.96182C23.2502 5.93656 23.2346 5.9125 23.2169 5.89009C23.1558 5.61591 22.9019 5.42883 22.622 5.45174C21.4736 5.55642 20.3502 5.07268 19.6373 4.16631C19.4599 3.94735 19.1481 3.89292 18.9069 4.03879C18.8798 4.042 18.853 4.04698 18.8266 4.0536L7.18942 8.68752C7.0486 8.74274 6.93595 8.85226 6.87689 8.99152H3.34281L22.6368 1.3091L27.6914 14.0012L25.0483 15.0555Z" fill="#0C56E9"/>
<path d="M2.68356 19.9495C3.78882 20.2762 4.6537 21.14 4.98174 22.2448C5.05369 22.486 5.27549 22.6512 5.52711 22.6513C5.55664 22.6494 5.58596 22.645 5.61478 22.6382C5.64033 22.6455 5.66644 22.6508 5.69277 22.6541H19.3555C19.3789 22.6511 19.4021 22.6463 19.4249 22.6399C19.7093 22.7091 19.996 22.5347 20.0652 22.2502C20.0654 22.2492 20.0657 22.2482 20.0659 22.2471C20.3931 21.1411 21.2581 20.2761 22.3641 19.9489C22.6323 19.8669 22.799 19.5997 22.7546 19.3227C22.7622 19.2951 22.7677 19.2669 22.7711 19.2385V14.6842C22.7678 14.6557 22.7621 14.6275 22.7541 14.6C22.7987 14.323 22.6319 14.0555 22.3635 13.9738C21.2576 13.6466 20.3928 12.7813 20.0665 11.675C19.9841 11.405 19.7142 11.2379 19.4357 11.2845C19.4094 11.2772 19.3826 11.2718 19.3555 11.2686H5.69277C5.66409 11.272 5.6357 11.2777 5.60795 11.2856C5.33107 11.2415 5.06393 11.4081 4.98174 11.6762C4.65434 12.7819 3.78939 13.6466 2.68356 13.9738C2.41536 14.0557 2.24871 14.323 2.29304 14.6C2.28564 14.6277 2.2803 14.6558 2.2771 14.6842V19.2385C2.28037 19.2652 2.28571 19.2917 2.29304 19.3176C2.24636 19.5963 2.41337 19.8666 2.68356 19.9495ZM3.41566 14.9154C4.55877 14.4562 5.46478 13.5502 5.9239 12.4071H19.1238C19.5831 13.5502 20.4893 14.4562 21.6326 14.9154V19.0073C20.4898 19.467 19.584 20.3728 19.1243 21.5156H5.9239C5.46428 20.3728 4.55841 19.467 3.41566 19.0073V14.9154Z" fill="#0C56E9"/>
<path d="M12.5242 20.3772C14.4106 20.3772 15.9399 18.848 15.9399 16.9616C15.9399 15.0751 14.4106 13.5459 12.5242 13.5459C10.6377 13.5459 9.10852 15.0751 9.10852 16.9616C9.11037 18.8472 10.6385 20.3754 12.5242 20.3772ZM12.5242 14.6845C13.7818 14.6845 14.8013 15.704 14.8013 16.9616C14.8013 18.2192 13.7818 19.2387 12.5242 19.2387C11.2666 19.2387 10.2471 18.2192 10.2471 16.9616C10.2471 15.704 11.2666 14.6845 12.5242 14.6845Z" fill="#0C56E9"/>
<path d="M6.26212 17.8153C6.7337 17.8153 7.11604 17.4329 7.11604 16.9613C7.11604 16.4898 6.7337 16.1074 6.26212 16.1074C5.79054 16.1074 5.4082 16.4898 5.4082 16.9613C5.4082 17.433 5.79054 17.8153 6.26212 17.8153ZM6.26212 16.6767C6.41931 16.6767 6.54676 16.8041 6.54676 16.9613C6.54676 17.1185 6.41931 17.246 6.26212 17.246C6.10493 17.246 5.97748 17.1185 5.97748 16.9613C5.97748 16.8041 6.10493 16.6767 6.26212 16.6767Z" fill="#0C56E9"/>
<path d="M18.7862 17.8153C19.2577 17.8153 19.6401 17.4329 19.6401 16.9613C19.6401 16.4898 19.2577 16.1074 18.7862 16.1074C18.3146 16.1074 17.9323 16.4898 17.9323 16.9613C17.9323 17.433 18.3146 17.8153 18.7862 17.8153ZM18.7862 16.6767C18.9434 16.6767 19.0708 16.8041 19.0708 16.9613C19.0708 17.1185 18.9434 17.246 18.7862 17.246C18.629 17.246 18.5015 17.1185 18.5015 16.9613C18.5015 16.8041 18.629 16.6767 18.7862 16.6767Z" fill="#0C56E9"/>
</svg>
