<svg width="32" height="32" viewBox="0 0 32 32" fill="none" xmlns="http://www.w3.org/2000/svg">
<g clip-path="url(#clip0)">
<path d="M31.986 6.95318C31.98 6.85118 31.974 6.74918 31.936 6.64718C31.914 6.58918 31.874 6.54918 31.842 6.49718C31.82 6.46118 31.804 6.42918 31.78 6.39718C31.668 6.25118 31.53 6.13918 31.364 6.07518C31.358 6.07318 31.356 6.06718 31.35 6.06518L15.35 0.0671795C15.108 -0.0268205 14.842 -0.0208205 14.606 0.0811796L0.606 6.07918C0.592 6.08518 0.586 6.10118 0.572 6.10718C0.434 6.17318 0.318 6.27518 0.222 6.40118C0.194 6.43718 0.17 6.46918 0.146 6.50918C0.126 6.54318 0.096 6.56718 0.08 6.60518C0.026 6.73318 0 6.86518 0 6.99718V6.99918V24.9992C0 25.3992 0.238 25.7612 0.606 25.9192L14.606 31.9192H14.608C14.73 31.9712 14.862 31.9992 15 31.9992C15.12 31.9992 15.238 31.9772 15.352 31.9352L15.388 31.9212H15.39L31.352 25.9352C31.742 25.7892 32 25.4152 32 24.9992V6.99918C32 6.98118 31.986 6.96918 31.986 6.95318ZM14 29.4812L2 24.3392V8.51712L14 13.6591V29.4812ZM15.024 11.9212L3.54 6.99918L15.024 2.07918L28.152 6.99918L25.022 8.17318L19.41 5.65918C19.126 5.53118 18.802 5.54518 18.532 5.69318L14.61 7.35918C14.24 7.51518 14 7.88318 14 8.28518C14 8.68918 14.244 9.05518 14.62 9.20918L18.258 10.7112L15.024 11.9212ZM22 11.4412L24 10.6912V15.5652L22 16.3152V11.4412ZM21.004 9.67918L17.584 8.26918L19 7.66718L22.36 9.17118L21.004 9.67918ZM30 24.3052L16 29.5552V13.6912L20 12.1912V17.7592C20 18.0872 20.162 18.3932 20.43 18.5812C20.6 18.6992 20.798 18.7592 21 18.7592C21.118 18.7592 21.238 18.7372 21.352 18.6952L25.352 17.1952C25.742 17.0472 26 16.6752 26 16.2592V9.94118L30 8.44118V24.3052Z" fill="#263238"/>
</g>
<defs>
<clipPath id="clip0">
<rect width="32" height="32" fill="white"/>
</clipPath>
</defs>
</svg>
