<svg width="32" height="32" viewBox="0 0 32 32" fill="none" xmlns="http://www.w3.org/2000/svg">
<g clip-path="url(#clip0)">
<path d="M30.9993 15.0004H18.333C17.781 15.0004 17.333 14.5524 17.333 14.0005C17.333 13.4485 17.781 13.0005 18.333 13.0005H30.9993C31.5513 13.0005 31.9993 13.4485 31.9993 14.0005C31.9993 14.5524 31.5513 15.0004 30.9993 15.0004Z" fill="#BE4242"/>
<path d="M25.9992 20.0005C25.7431 20.0005 25.4873 19.9031 25.2925 19.7073C24.9019 19.3165 24.9019 18.6832 25.2925 18.2926L29.5858 13.9995L25.2925 9.70618C24.9019 9.31557 24.9019 8.68229 25.2925 8.29168C25.6833 7.90082 26.3166 7.90082 26.7072 8.29168L31.7071 13.2915C32.0977 13.6821 32.0977 14.3154 31.7071 14.706L26.7072 19.7059C26.5112 19.9031 26.2553 20.0005 25.9992 20.0005Z" fill="#BE4242"/>
<path d="M10.6664 31.9995C10.381 31.9995 10.1103 31.9595 9.83978 31.8755L1.81586 29.2022C0.724099 28.8209 0 27.8036 0 26.6664V2.66715C0 1.1965 1.19601 0.000488281 2.66666 0.000488281C2.95181 0.000488281 3.22256 0.0405261 3.4933 0.124508L11.517 2.79776C12.609 3.1791 13.3328 4.1964 13.3328 5.33357V29.3328C13.3328 30.8035 12.1371 31.9995 10.6664 31.9995ZM2.66666 2.00043C2.29998 2.00043 1.99994 2.30047 1.99994 2.66715V26.6664C1.99994 26.9503 2.19061 27.2142 2.46257 27.309L10.4489 29.9703C10.5063 29.9888 10.581 29.9996 10.6664 29.9996C11.0331 29.9996 11.3329 29.6995 11.3329 29.3328V5.33357C11.3329 5.04965 11.1422 4.78574 10.8703 4.69102L2.88394 2.02972C2.82657 2.01117 2.75187 2.00043 2.66666 2.00043Z" fill="#BE4242"/>
<path d="M20.3324 10.6674C19.7804 10.6674 19.3325 10.2194 19.3325 9.66742V3.66761C19.3325 2.74894 18.5847 2.00091 17.666 2.00091H2.66647C2.11449 2.00091 1.6665 1.55293 1.6665 1.00095C1.6665 0.448961 2.11449 0.000976562 2.66647 0.000976562H17.666C19.6886 0.000976562 21.3324 1.64497 21.3324 3.66761V9.66742C21.3324 10.2194 20.8844 10.6674 20.3324 10.6674Z" fill="#BE4242"/>
<path d="M17.6663 28.0004H12.333C11.781 28.0004 11.333 27.5524 11.333 27.0004C11.333 26.4484 11.781 26.0004 12.333 26.0004H17.6663C18.585 26.0004 19.3328 25.2524 19.3328 24.3338V18.334C19.3328 17.782 19.7807 17.334 20.3327 17.334C20.8847 17.334 21.3327 17.782 21.3327 18.334V24.3338C21.3327 26.3564 19.6889 28.0004 17.6663 28.0004Z" fill="#BE4242"/>
</g>
<defs>
<clipPath id="clip0">
<rect width="32" height="32" fill="white"/>
</clipPath>
</defs>
</svg>
