<svg width="40" height="40" viewBox="0 0 40 40" fill="none" xmlns="http://www.w3.org/2000/svg">
<circle cx="20" cy="20" r="20" fill="#0C56E9"/>
<g clip-path="url(#clip0)">
<path d="M31.6183 12.3404C31.085 12.5769 30.5315 12.7634 29.9635 12.8985C30.5894 12.3038 31.0599 11.5599 31.3254 10.7295C31.4012 10.4925 31.1437 10.2875 30.9297 10.4144C30.1395 10.8831 29.2884 11.2348 28.3998 11.4596C28.3483 11.4727 28.2951 11.4793 28.2417 11.4793C28.0799 11.4793 27.9225 11.4192 27.7988 11.3101C26.8534 10.4769 25.6375 10.0181 24.3752 10.0181C23.829 10.0181 23.2775 10.1032 22.736 10.2711C21.0582 10.7915 19.7637 12.1754 19.3576 13.8829C19.2052 14.5233 19.164 15.1644 19.2349 15.7881C19.243 15.8598 19.2091 15.9098 19.1882 15.9333C19.1515 15.9744 19.0995 15.998 19.0455 15.998C19.0395 15.998 19.0333 15.9977 19.0271 15.9971C15.3547 15.6559 12.043 13.8866 9.70211 11.0152C9.58274 10.8687 9.35383 10.8867 9.25868 11.0499C8.80028 11.8363 8.55803 12.7358 8.55803 13.6511C8.55803 15.0538 9.12158 16.3757 10.1005 17.3394C9.68882 17.2418 9.2904 17.0881 8.9203 16.8825C8.74124 16.783 8.52093 16.9109 8.51842 17.1157C8.49279 19.1995 9.71281 21.0537 11.5405 21.8887C11.5037 21.8895 11.4668 21.8899 11.43 21.8899C11.1403 21.8899 10.8469 21.862 10.5582 21.8068C10.3566 21.7683 10.1872 21.9596 10.2498 22.1551C10.843 24.0071 12.4377 25.3723 14.3459 25.6822C12.7622 26.7454 10.9179 27.3062 8.99829 27.3062L8.39987 27.3058C8.21549 27.3058 8.05955 27.426 8.01256 27.6046C7.96628 27.7805 8.05153 27.966 8.20876 28.0575C10.3718 29.3163 12.8391 29.9816 15.3449 29.9816C17.5383 29.9816 19.5901 29.5463 21.4432 28.6879C23.1421 27.901 24.6433 26.776 25.9052 25.3443C27.0808 24.0107 28 22.4711 28.6374 20.7685C29.2449 19.1454 29.5661 17.4136 29.5661 15.7603V15.6815C29.566 15.416 29.6861 15.1662 29.8956 14.9962C30.6905 14.3508 31.3827 13.591 31.9529 12.7381C32.1035 12.5128 31.866 12.2306 31.6183 12.3404Z" fill="white"/>
</g>
<defs>
<clipPath id="clip0">
<rect width="24" height="24" fill="white" transform="translate(8 8)"/>
</clipPath>
</defs>
</svg>
