<svg width="24" height="24" viewBox="0 0 24 24" fill="none" xmlns="http://www.w3.org/2000/svg">
<path fill-rule="evenodd" clip-rule="evenodd" d="M16.2826 6.5C16.2826 8.60993 14.4666 10.5 12 10.5C9.53345 10.5 7.71741 8.60993 7.71741 6.5C7.71741 4.39007 9.53345 2.5 12 2.5C14.4666 2.5 16.2826 4.39007 16.2826 6.5ZM18.7826 6.5C18.7826 10.0898 15.7459 13 12 13C8.25408 13 5.21741 10.0898 5.21741 6.5C5.21741 2.91015 8.25408 0 12 0C15.7459 0 18.7826 2.91015 18.7826 6.5ZM2.7109 21.5C3.02658 19.9261 3.65952 19.1891 4.35335 18.7384C5.65993 17.8897 7.95153 17.5 12 17.5C16.0485 17.5 18.3401 17.8897 19.6467 18.7384C20.3405 19.1891 20.9734 19.9261 21.2891 21.5H2.7109ZM12 15C19.0524 15 22.9787 16.0652 23.8253 21.5C23.9418 22.2478 24 23.0782 24 24H21.5H2.5H0C0 23.0782 0.0581793 22.2478 0.174658 21.5C1.02125 16.0652 4.94764 15 12 15Z" fill="#263238"/>
</svg>
