<svg width="222" height="64" viewBox="0 0 222 64" fill="none" xmlns="http://www.w3.org/2000/svg">
<path d="M220.542 56.6189C220.542 60.0295 217.721 62.7922 214.233 62.7922H7.78168C4.295 62.7922 1.46484 60.0295 1.46484 56.6189V7.38865C1.46484 3.97963 4.295 1.20728 7.78168 1.20728H214.232C217.721 1.20728 220.54 3.97963 220.54 7.38865L220.542 56.6189Z" fill="black"/>
<path d="M213.568 1.282C217.367 1.282 220.458 4.29601 220.458 8V56C220.458 59.704 217.367 62.718 213.568 62.718H8.4395C4.64053 62.718 1.54925 59.704 1.54925 56V8C1.54925 4.29601 4.64053 1.282 8.4395 1.282H213.568ZM213.568 3.38236e-06H8.4395C3.92873 3.38236e-06 0.234375 3.602 0.234375 8V56C0.234375 60.398 3.92873 64 8.4395 64H213.568C218.078 64 221.773 60.398 221.773 56V8C221.773 3.602 218.078 3.38236e-06 213.568 3.38236e-06Z" fill="#A6A6A6"/>
<path d="M49.6755 31.6542C49.628 26.4974 54.0062 23.9886 54.2064 23.8718C51.7268 20.347 47.8835 19.8654 46.533 19.827C43.3051 19.4958 40.174 21.7102 38.5297 21.7102C36.8526 21.7102 34.3205 19.859 31.5914 19.9134C28.0796 19.9662 24.7943 21.9486 22.9925 25.027C19.2739 31.3038 22.0472 40.5278 25.6099 45.6014C27.3921 48.0862 29.4745 50.8606 32.2003 50.763C34.8669 50.6558 35.863 49.1054 39.0811 49.1054C42.2696 49.1054 43.205 50.763 45.9849 50.7006C48.8468 50.6558 50.6487 48.2046 52.3685 45.6974C54.4279 42.8494 55.255 40.0446 55.2878 39.9006C55.2206 39.8782 49.7297 37.835 49.6755 31.6542Z" fill="white"/>
<path d="M44.4243 16.4894C45.8585 14.7406 46.8398 12.3614 46.5674 9.94702C44.4915 10.0366 41.8954 11.347 40.4005 13.0574C39.0778 14.5646 37.8963 17.035 38.2015 19.3582C40.5334 19.5278 42.9276 18.211 44.4243 16.4894Z" fill="white"/>
<path d="M88.267 50.4063H84.5402L82.4988 44.1519H75.403L73.4584 50.4063H69.8301L76.8602 29.1135H81.2024L88.267 50.4063ZM81.8834 41.5279L80.0373 35.9679C79.842 35.3999 79.476 34.0623 78.9361 31.9567H78.8705C78.6555 32.8623 78.3093 34.1999 77.8334 35.9679L76.02 41.5279H81.8834Z" fill="white"/>
<path d="M106.346 42.541C106.346 45.1522 105.623 47.2162 104.175 48.7314C102.879 50.0802 101.269 50.7538 99.3474 50.7538C97.2731 50.7538 95.7831 50.0274 94.8756 48.5746H94.8099V56.6626H91.3113V40.1074C91.3113 38.4658 91.267 36.781 91.1816 35.053H94.2586L94.4538 37.4866H94.5195C95.6863 35.653 97.4569 34.7378 99.8331 34.7378C101.691 34.7378 103.242 35.453 104.482 36.885C105.726 38.3186 106.346 40.2034 106.346 42.541ZM102.782 42.6658C102.782 41.1714 102.437 39.9394 101.745 38.9698C100.988 37.9586 99.9726 37.453 98.6992 37.453C97.836 37.453 97.0516 37.7346 96.3509 38.2898C95.6485 38.8498 95.189 39.581 94.974 40.4866C94.8657 40.909 94.8116 41.2546 94.8116 41.5266V44.0866C94.8116 45.2034 95.1628 46.1458 95.8651 46.9154C96.5675 47.685 97.4799 48.069 98.6024 48.069C99.9201 48.069 100.946 47.573 101.679 46.5842C102.414 45.5938 102.782 44.2882 102.782 42.6658Z" fill="white"/>
<path d="M124.458 42.541C124.458 45.1522 123.734 47.2162 122.285 48.7314C120.991 50.0802 119.381 50.7538 117.459 50.7538C115.385 50.7538 113.895 50.0274 112.989 48.5746H112.923V56.6626H109.425V40.1074C109.425 38.4658 109.38 36.781 109.295 35.053H112.372L112.567 37.4866H112.633C113.798 35.653 115.569 34.7378 117.946 34.7378C119.802 34.7378 121.353 35.453 122.597 36.885C123.836 38.3186 124.458 40.2034 124.458 42.541ZM120.894 42.6658C120.894 41.1714 120.547 39.9394 119.855 38.9698C119.098 37.9586 118.086 37.453 116.811 37.453C115.946 37.453 115.163 37.7346 114.461 38.2898C113.759 38.8498 113.301 39.581 113.086 40.4866C112.979 40.909 112.923 41.2546 112.923 41.5266V44.0866C112.923 45.2034 113.274 46.1458 113.973 46.9154C114.676 47.6834 115.588 48.069 116.714 48.069C118.032 48.069 119.057 47.573 119.791 46.5842C120.526 45.5938 120.894 44.2882 120.894 42.6658Z" fill="white"/>
<path d="M144.708 44.4351C144.708 46.2463 144.064 47.7199 142.769 48.8575C141.346 50.1007 139.365 50.7215 136.82 50.7215C134.47 50.7215 132.586 50.2799 131.16 49.3951L131.971 46.5519C133.507 47.4575 135.192 47.9119 137.028 47.9119C138.346 47.9119 139.372 47.6207 140.109 47.0415C140.842 46.4623 141.208 45.6847 141.208 44.7151C141.208 43.8511 140.906 43.1231 140.301 42.5327C139.698 41.9423 138.692 41.3935 137.288 40.8863C133.464 39.4959 131.554 37.4591 131.554 34.7807C131.554 33.0303 132.224 31.5951 133.564 30.4783C134.9 29.3599 136.682 28.8015 138.911 28.8015C140.898 28.8015 142.549 29.1391 143.867 29.8127L142.992 32.5935C141.761 31.9407 140.37 31.6143 138.812 31.6143C137.581 31.6143 136.62 31.9103 135.931 32.4991C135.348 33.0255 135.056 33.6671 135.056 34.4271C135.056 35.2687 135.389 35.9647 136.059 36.5119C136.641 37.0175 137.7 37.5647 139.236 38.1551C141.115 38.8927 142.495 39.7551 143.383 40.7439C144.267 41.7295 144.708 42.9631 144.708 44.4351Z" fill="white"/>
<path d="M156.276 37.6126H152.419V45.067C152.419 46.963 153.099 47.9103 154.461 47.9103C155.086 47.9103 155.605 47.8575 156.015 47.7519L156.112 50.3423C155.422 50.5935 154.515 50.7199 153.391 50.7199C152.009 50.7199 150.929 50.3087 150.15 49.4879C149.374 48.6655 148.983 47.2863 148.983 45.3487V37.6095H146.686V35.0495H148.983V32.2383L152.419 31.2271V35.0495H156.276V37.6126Z" fill="white"/>
<path d="M173.676 42.603C173.676 44.963 172.983 46.9006 171.602 48.4158C170.153 49.9758 168.229 50.7534 165.832 50.7534C163.521 50.7534 161.682 50.0062 160.31 48.5118C158.938 47.0174 158.252 45.131 158.252 42.8574C158.252 40.4782 158.958 38.5294 160.374 37.0142C161.787 35.4974 163.694 34.739 166.091 34.739C168.402 34.739 170.261 35.4862 171.664 36.9822C173.006 38.4334 173.676 40.307 173.676 42.603ZM170.046 42.7134C170.046 41.2974 169.736 40.083 169.107 39.0702C168.374 37.8446 167.325 37.2334 165.966 37.2334C164.56 37.2334 163.492 37.8462 162.758 39.0702C162.13 40.0846 161.82 41.3182 161.82 42.7774C161.82 44.1934 162.13 45.4078 162.758 46.419C163.515 47.6446 164.572 48.2558 165.935 48.2558C167.271 48.2558 168.32 47.6318 169.076 46.387C169.721 45.355 170.046 44.1278 170.046 42.7134Z" fill="white"/>
<path d="M185.048 38.053C184.702 37.9906 184.333 37.9586 183.945 37.9586C182.715 37.9586 181.763 38.4114 181.093 39.3186C180.511 40.1186 180.219 41.1298 180.219 42.3506V50.4066H176.722L176.754 39.8882C176.754 38.1186 176.71 36.5074 176.623 35.0546H179.67L179.798 37.9922H179.895C180.265 36.9826 180.847 36.1698 181.645 35.5602C182.424 35.0114 183.266 34.7378 184.173 34.7378C184.497 34.7378 184.789 34.7602 185.048 34.8002V38.053Z" fill="white"/>
<path d="M200.696 42.0034C200.696 42.6146 200.655 43.1298 200.568 43.5506H190.072C190.113 45.0674 190.62 46.2274 191.595 47.0274C192.479 47.7426 193.623 48.101 195.028 48.101C196.582 48.101 198 47.8594 199.275 47.3746L199.823 49.7426C198.333 50.3762 196.574 50.6914 194.544 50.6914C192.102 50.6914 190.185 49.9906 188.79 48.5906C187.399 47.1906 186.701 45.3106 186.701 42.9522C186.701 40.637 187.349 38.709 188.647 37.1714C190.006 35.5298 191.842 34.709 194.153 34.709C196.423 34.709 198.141 35.5298 199.308 37.1714C200.231 38.4754 200.696 40.0882 200.696 42.0034ZM197.36 41.1186C197.383 40.1074 197.154 39.2338 196.68 38.4962C196.075 37.5474 195.144 37.0738 193.892 37.0738C192.748 37.0738 191.818 37.5362 191.107 38.4642C190.525 39.2018 190.179 40.0866 190.072 41.117H197.36V41.1186Z" fill="white"/>
<path d="M80.7271 16.0147C80.7271 17.8979 80.1478 19.3155 78.9909 20.2675C77.9193 21.1459 76.3964 21.5859 74.4239 21.5859C73.4458 21.5859 72.6089 21.5443 71.9082 21.4611V11.1715C72.8223 11.0275 73.8069 10.9539 74.8703 10.9539C76.7492 10.9539 78.1654 11.3523 79.1205 12.1491C80.1905 13.0499 80.7271 14.3379 80.7271 16.0147ZM78.9137 16.0611C78.9137 14.8403 78.5823 13.9043 77.9193 13.2515C77.2563 12.6003 76.2881 12.2739 75.013 12.2739C74.4715 12.2739 74.0104 12.3091 73.628 12.3827V20.2051C73.8397 20.2371 74.227 20.2515 74.7898 20.2515C76.106 20.2515 77.1218 19.8947 77.8372 19.1811C78.5527 18.4675 78.9137 17.4275 78.9137 16.0611Z" fill="white"/>
<path d="M90.3422 17.6593C90.3422 18.8193 90.0026 19.7697 89.3232 20.5153C88.611 21.2817 87.6674 21.6641 86.4891 21.6641C85.3535 21.6641 84.4493 21.2977 83.7749 20.5617C83.102 19.8273 82.7656 18.9009 82.7656 17.7841C82.7656 16.6161 83.1119 15.6577 83.8077 14.9137C84.5035 14.1697 85.4389 13.7969 86.6171 13.7969C87.7527 13.7969 88.6651 14.1633 89.356 14.8977C90.0124 15.6113 90.3422 16.5329 90.3422 17.6593ZM88.5584 17.7137C88.5584 17.0177 88.4042 16.4209 88.0973 15.9233C87.7363 15.3217 87.2227 15.0209 86.5548 15.0209C85.8639 15.0209 85.3388 15.3217 84.9777 15.9233C84.6692 16.4209 84.5166 17.0273 84.5166 17.7441C84.5166 18.4401 84.6709 19.0369 84.9777 19.5345C85.3502 20.1361 85.8688 20.4369 86.5383 20.4369C87.1948 20.4369 87.71 20.1313 88.0809 19.5185C88.3993 19.0113 88.5584 18.4097 88.5584 17.7137Z" fill="white"/>
<path d="M103.234 13.9507L100.813 21.4931H99.2377L98.235 18.2179C97.9807 17.4003 97.7739 16.5875 97.6131 15.7811H97.5819C97.4326 16.6099 97.2258 17.4211 96.96 18.2179L95.8949 21.4931H94.3015L92.0254 13.9507H93.7928L94.6674 17.5363C94.8791 18.3843 95.0531 19.1923 95.1926 19.9571H95.2237C95.3517 19.3267 95.5634 18.5235 95.8621 17.5523L96.96 13.9523H98.3614L99.4133 17.4755C99.6676 18.3347 99.8744 19.1619 100.034 19.9587H100.081C100.198 19.1827 100.373 18.3555 100.606 17.4755L101.545 13.9523H103.234V13.9507Z" fill="white"/>
<path d="M112.15 21.4928H110.43V17.1728C110.43 15.8416 109.911 15.176 108.871 15.176C108.361 15.176 107.949 15.3584 107.629 15.7248C107.312 16.0912 107.151 16.5232 107.151 17.0176V21.4912H105.431V16.1056C105.431 15.4432 105.41 14.7248 105.369 13.9472H106.881L106.961 15.1264H107.009C107.209 14.76 107.507 14.4576 107.9 14.216C108.366 13.9344 108.887 13.792 109.459 13.792C110.181 13.792 110.781 14.0192 111.259 14.4752C111.853 15.0336 112.15 15.8672 112.15 16.9744V21.4928Z" fill="white"/>
<path d="M116.892 21.4929H115.174V10.4897H116.892V21.4929Z" fill="white"/>
<path d="M127.017 17.6593C127.017 18.8193 126.677 19.7697 125.998 20.5153C125.286 21.2817 124.341 21.6641 123.164 21.6641C122.027 21.6641 121.122 21.2977 120.45 20.5617C119.777 19.8273 119.44 18.9009 119.44 17.7841C119.44 16.6161 119.787 15.6577 120.482 14.9137C121.178 14.1697 122.114 13.7969 123.29 13.7969C124.428 13.7969 125.338 14.1633 126.031 14.8977C126.687 15.6113 127.017 16.5329 127.017 17.6593ZM125.232 17.7137C125.232 17.0177 125.077 16.4209 124.77 15.9233C124.411 15.3217 123.896 15.0209 123.23 15.0209C122.537 15.0209 122.012 15.3217 121.653 15.9233C121.344 16.4209 121.191 17.0273 121.191 17.7441C121.191 18.4401 121.346 19.0369 121.653 19.5345C122.025 20.1361 122.544 20.4369 123.213 20.4369C123.87 20.4369 124.383 20.1313 124.754 19.5185C125.074 19.0113 125.232 18.4097 125.232 17.7137Z" fill="white"/>
<path d="M135.34 21.4929H133.796L133.668 20.6241H133.62C133.092 21.3169 132.339 21.6641 131.361 21.6641C130.63 21.6641 130.04 21.4353 129.595 20.9809C129.191 20.5681 128.989 20.0545 128.989 19.4449C128.989 18.5233 129.383 17.8209 130.176 17.3345C130.967 16.8481 132.079 16.6097 133.512 16.6209V16.4801C133.512 15.4865 132.977 14.9905 131.905 14.9905C131.142 14.9905 130.469 15.1777 129.889 15.5489L129.539 14.4481C130.258 14.0145 131.146 13.7969 132.193 13.7969C134.214 13.7969 135.228 14.8369 135.228 16.9169V19.6945C135.228 20.4481 135.266 21.0481 135.34 21.4929ZM133.555 18.9009V17.7377C131.658 17.7057 130.709 18.2129 130.709 19.2577C130.709 19.6513 130.817 19.9457 131.039 20.1425C131.26 20.3393 131.543 20.4369 131.879 20.4369C132.257 20.4369 132.609 20.3201 132.931 20.0881C133.254 19.8545 133.453 19.5585 133.527 19.1953C133.545 19.1137 133.555 19.0145 133.555 18.9009Z" fill="white"/>
<path d="M145.113 21.4929H143.587L143.507 20.2817H143.459C142.972 21.2033 142.141 21.6641 140.974 21.6641C140.042 21.6641 139.266 21.3073 138.651 20.5937C138.035 19.8801 137.729 18.9537 137.729 17.8161C137.729 16.5953 138.062 15.6065 138.731 14.8513C139.379 14.1473 140.174 13.7953 141.119 13.7953C142.158 13.7953 142.885 14.1361 143.298 14.8193H143.331V10.4897H145.052V19.4609C145.052 20.1953 145.072 20.8721 145.113 21.4929ZM143.331 18.3121V17.0545C143.331 16.8369 143.315 16.6609 143.283 16.5265C143.187 16.1233 142.978 15.7841 142.661 15.5105C142.341 15.2369 141.956 15.0993 141.511 15.0993C140.869 15.0993 140.367 15.3473 139.998 15.8449C139.632 16.3425 139.447 16.9777 139.447 17.7537C139.447 18.4993 139.622 19.1041 139.975 19.5697C140.348 20.0657 140.85 20.3137 141.478 20.3137C142.043 20.3137 142.494 20.1073 142.837 19.6929C143.169 19.3105 143.331 18.8497 143.331 18.3121Z" fill="white"/>
<path d="M159.821 17.6593C159.821 18.8193 159.481 19.7697 158.802 20.5153C158.089 21.2817 157.148 21.6641 155.968 21.6641C154.834 21.6641 153.929 21.2977 153.253 20.5617C152.581 19.8273 152.244 18.9009 152.244 17.7841C152.244 16.6161 152.59 15.6577 153.286 14.9137C153.982 14.1697 154.917 13.7969 156.097 13.7969C157.231 13.7969 158.145 14.1633 158.835 14.8977C159.491 15.6113 159.821 16.5329 159.821 17.6593ZM158.039 17.7137C158.039 17.0177 157.884 16.4209 157.577 15.9233C157.215 15.3217 156.703 15.0209 156.033 15.0209C155.344 15.0209 154.819 15.3217 154.456 15.9233C154.148 16.4209 153.995 17.0273 153.995 17.7441C153.995 18.4401 154.149 19.0369 154.456 19.5345C154.829 20.1361 155.347 20.4369 156.017 20.4369C156.673 20.4369 157.19 20.1313 157.561 19.5185C157.878 19.0113 158.039 18.4097 158.039 17.7137Z" fill="white"/>
<path d="M169.068 21.4928H167.35V17.1728C167.35 15.8416 166.831 15.176 165.789 15.176C165.279 15.176 164.867 15.3584 164.549 15.7248C164.23 16.0912 164.071 16.5232 164.071 17.0176V21.4912H162.35V16.1056C162.35 15.4432 162.33 14.7248 162.289 13.9472H163.799L163.879 15.1264H163.927C164.129 14.76 164.427 14.4576 164.818 14.216C165.286 13.9344 165.806 13.792 166.378 13.792C167.099 13.792 167.7 14.0192 168.177 14.4752C168.773 15.0336 169.068 15.8672 169.068 16.9744V21.4928Z" fill="white"/>
<path d="M180.643 15.2067H178.749V18.8707C178.749 19.8019 179.086 20.2675 179.752 20.2675C180.06 20.2675 180.316 20.2419 180.518 20.1891L180.563 21.4611C180.223 21.5859 179.777 21.6483 179.227 21.6483C178.547 21.6483 178.019 21.4467 177.637 21.0435C177.253 20.6403 177.062 19.9619 177.062 19.0099V15.2067H175.932V13.9507H177.062V12.5683L178.748 12.0723V13.9491H180.641V15.2067H180.643Z" fill="white"/>
<path d="M189.747 21.4929H188.025V17.2049C188.025 15.8529 187.507 15.1761 186.468 15.1761C185.67 15.1761 185.126 15.5681 184.827 16.3521C184.776 16.5169 184.746 16.7185 184.746 16.9553V21.4913H183.028V10.4897H184.746V15.0353H184.779C185.321 14.2081 186.097 13.7953 187.103 13.7953C187.815 13.7953 188.404 14.0225 188.872 14.4785C189.455 15.0465 189.747 15.8913 189.747 17.0081V21.4929Z" fill="white"/>
<path d="M199.138 17.3649C199.138 17.6657 199.115 17.9185 199.074 18.1249H193.917C193.94 18.8705 194.186 19.4385 194.663 19.8321C195.1 20.1841 195.663 20.3601 196.352 20.3601C197.115 20.3601 197.811 20.2417 198.438 20.0033L198.707 21.1681C197.973 21.4785 197.11 21.6337 196.111 21.6337C194.913 21.6337 193.969 21.2897 193.286 20.6017C192.6 19.9137 192.261 18.9905 192.261 17.8321C192.261 16.6945 192.577 15.7473 193.216 14.9921C193.882 14.1857 194.783 13.7825 195.92 13.7825C197.033 13.7825 197.878 14.1857 198.449 14.9921C198.91 15.6321 199.138 16.4241 199.138 17.3649ZM197.497 16.9313C197.51 16.4337 197.397 16.0049 197.164 15.6433C196.865 15.1777 196.411 14.9441 195.796 14.9441C195.234 14.9441 194.776 15.1713 194.427 15.6273C194.141 15.9905 193.972 16.4241 193.917 16.9313H197.497Z" fill="white"/>
</svg>
