<svg width="37" height="89" viewBox="0 0 37 89" fill="none" xmlns="http://www.w3.org/2000/svg">
<path d="M31.5834 30.1695H4.5259C3.9292 30.1608 3.33681 30.2719 2.78381 30.4962C2.23081 30.7205 1.72845 31.0536 1.30647 31.4755C0.88449 31.8975 0.551474 32.3999 0.327146 32.9529C0.102817 33.5059 -0.00826341 34.0983 0.000478677 34.695V79.9492C0.0471931 82.335 1.01576 84.6101 2.7031 86.2974C4.39044 87.9848 6.66552 88.9533 9.05133 89.0001H27.153C29.5388 88.9533 31.8139 87.9848 33.5012 86.2974C35.1886 84.6101 36.1572 82.335 36.2039 79.9492V34.7885C36.2039 34.1818 36.0843 33.581 35.8521 33.0206C35.6199 32.4601 35.2795 31.9508 34.8505 31.5219C34.4214 31.0929 33.912 30.7527 33.3515 30.5207C32.7909 30.2887 32.1901 30.1693 31.5834 30.1695Z" fill="#E7EEFE"/>
<path d="M0.000976562 39.2203H36.2044V72.4068H0.000976562V39.2203Z" fill="#0C56E9"/>
<path d="M24.1362 58.8305C24.1362 60.4308 23.5004 61.9655 22.3689 63.0971C21.2373 64.2287 19.7025 64.8644 18.1023 64.8644C16.502 64.8644 14.9672 64.2287 13.8356 63.0971C12.7041 61.9655 12.0684 60.4308 12.0684 58.8305C12.0684 55.4983 18.1023 46.7627 18.1023 46.7627C18.1023 46.7627 24.1362 55.4983 24.1362 58.8305Z" fill="white"/>
<path d="M24.1366 12.0677H12.0688L3.01793 16.5932C2.14962 16.9999 1.40934 17.6367 0.877463 18.4346C0.34559 19.2324 0.0424547 20.1606 0.000976562 21.1186V27.1525C0.000976562 27.9526 0.318833 28.72 0.884621 29.2858C1.45041 29.8516 2.21778 30.1694 3.01793 30.1694H33.1874C33.9876 30.1694 34.7549 29.8516 35.3207 29.2858C35.8865 28.72 36.2044 27.9526 36.2044 27.1525V21.1186C36.1629 20.1606 35.8598 19.2324 35.3279 18.4346C34.796 17.6367 34.0557 16.9999 33.1874 16.5932L24.1366 12.0677Z" fill="#B9D0FD"/>
<path d="M12.0684 6.03394H24.1362V12.0678H12.0684V6.03394Z" fill="#0C56E9"/>
<path d="M15.0853 0H21.1192C21.9194 0 22.6867 0.317856 23.2525 0.883644C23.8183 1.44943 24.1362 2.2168 24.1362 3.01695V6.0339H12.0684V3.01695C12.0684 2.2168 12.3862 1.44943 12.952 0.883644C13.5178 0.317856 14.2852 0 15.0853 0Z" fill="#729FF8"/>
<path d="M26.0861 84.0326L22.0026 79.9492H14.2008L10.1174 84.0326L7.98438 81.8997L12.5098 77.3742C12.7926 77.0913 13.1763 76.9323 13.5763 76.9323H22.6271C23.0272 76.9323 23.4108 77.0913 23.6936 77.3742L28.2191 81.8997L26.0861 84.0326Z" fill="#B9D0FD"/>
<path d="M4.52539 43.7458H7.54234V46.7628H4.52539V43.7458Z" fill="white"/>
<path d="M28.6611 22.6272H31.6781V25.6441H28.6611V22.6272Z" fill="white"/>
</svg>
