<svg width="89" height="89" viewBox="0 0 89 89" fill="none" xmlns="http://www.w3.org/2000/svg">
<path d="M53.0418 86.3925H24.1377C27.649 86.3925 30.4946 83.5469 30.4946 80.0356V71.2451H46.6849V80.0356C46.6849 83.5469 49.5305 86.3925 53.0418 86.3925Z" fill="#B9D0FD"/>
<path d="M53.0419 86.3925H38.5898V71.2451H46.685V80.0356C46.685 83.5469 49.5306 86.3925 53.0419 86.3925Z" fill="#729FF8"/>
<path d="M76.832 63.569V73.6788H0V63.569L38.5898 61.1354H38.6003L76.832 63.569Z" fill="#E7EEFE"/>
<path d="M76.832 63.569V73.6788H38.5898V61.1354H38.6003L76.832 63.569Z" fill="#B9D0FD"/>
<path d="M2.60742 13.0841H74.2246V60.9616H2.60742V13.0841Z" fill="#364B63"/>
<path d="M38.5898 13.0841H74.2246V60.9616H38.5898V13.0841Z" fill="#1B314B"/>
<path d="M0 10.4767V63.569H76.832V10.4767H0ZM71.6172 58.3542H5.21484V15.6915H71.6172V58.3542Z" fill="#0C56E9"/>
<path d="M76.832 10.4767V63.569H38.5898V58.3542H71.6172V15.6915H38.5898V10.4767H76.832Z" fill="#286BF0"/>
<path d="M89.0005 19.0724C89.0005 29.6047 80.4621 38.1431 69.9298 38.1431C59.3959 38.1431 50.8574 29.6047 50.8574 19.0724C50.8574 8.53844 59.3959 0 69.9298 0C80.4621 0 89.0005 8.53844 89.0005 19.0724Z" fill="#1DD1A1"/>
<path d="M89.0004 19.0724C89.0004 29.6047 80.4619 38.1431 69.9297 38.1431V0C80.4619 0 89.0004 8.53844 89.0004 19.0724Z" fill="#0D8A6A"/>
<path d="M79.9089 15.9835L69.9295 25.963L68.1999 27.6926L59.9482 19.441L63.6369 15.7541L68.1999 20.3171L69.9295 18.5875L76.2203 12.2966L79.9089 15.9835Z" fill="#E7EEFE"/>
<path d="M79.9092 15.9835L69.9297 25.963V18.5875L76.2205 12.2966L79.9092 15.9835Z" fill="#B9D0FD"/>
<path d="M15.9834 83.7852H61.1961V89H15.9834V83.7852Z" fill="#B9D0FD"/>
<path d="M38.5898 83.7852H61.1962V89H38.5898V83.7852Z" fill="#B9D0FD"/>
<path d="M38.5897 24.309V49.7365H13.1621V24.309H23.2685L25.8759 26.7426L28.4833 24.309H38.5897Z" fill="#FFDA2D"/>
<path d="M38.5898 24.309V49.7365H25.876V26.7426L28.4834 24.309H38.5898Z" fill="#FCBE00"/>
<path d="M23.2686 24.309H28.4834V31.9817H23.2686V24.309Z" fill="#FFA001"/>
<path d="M25.876 24.309H28.4834V31.9817H25.876V24.309Z" fill="#F87F02"/>
<path d="M47.9512 44.5217H65.1353V49.7366H47.9512V44.5217Z" fill="#B9D0FD"/>
<path d="M47.9512 32.5525H53.166V37.7673H47.9512V32.5525Z" fill="#B9D0FD"/>
</svg>
