<svg width="222" height="64" viewBox="0 0 222 64" fill="none" xmlns="http://www.w3.org/2000/svg">
<path d="M213.04 64H8.19385C3.68928 64 0 60.398 0 56V8C0 3.602 3.68928 3.38236e-06 8.19385 3.38236e-06H213.04C217.545 3.38236e-06 221.234 3.602 221.234 8V56C221.234 60.398 217.545 64 213.04 64Z" fill="black"/>
<path d="M213.04 1.282C216.834 1.282 219.921 4.29601 219.921 8V56C219.921 59.704 216.834 62.718 213.04 62.718H8.19385C4.4001 62.718 1.31306 59.704 1.31306 56V8C1.31306 4.29601 4.4001 1.282 8.19385 1.282H213.04ZM213.04 3.38236e-06H8.19385C3.68928 3.38236e-06 0 3.602 0 8V56C0 60.398 3.68928 64 8.19385 64H213.04C217.545 64 221.234 60.398 221.234 56V8C221.234 3.602 217.545 3.38236e-06 213.04 3.38236e-06Z" fill="#A6A6A6"/>
<path d="M77.7067 16.3899C77.7067 17.7259 77.297 18.7959 76.4899 19.5939C75.562 20.5399 74.3534 21.0159 72.8723 21.0159C71.4569 21.0159 70.2483 20.5319 69.2568 19.5779C68.2633 18.6099 67.7676 17.4219 67.7676 15.9999C67.7676 14.5779 68.2633 13.3899 69.2568 12.4299C70.2483 11.4679 71.4569 10.9839 72.8723 10.9839C73.577 10.9839 74.2489 11.1259 74.8901 11.3899C75.5292 11.6559 76.0495 12.0159 76.4264 12.4599L75.5702 13.3039C74.9126 12.5459 74.0174 12.1719 72.8723 12.1719C71.8399 12.1719 70.9447 12.5239 70.1848 13.2339C69.433 13.9459 69.0561 14.8679 69.0561 15.9999C69.0561 17.1319 69.433 18.0619 70.1848 18.7739C70.9447 19.4759 71.8399 19.8359 72.8723 19.8359C73.9683 19.8359 74.8901 19.4759 75.6173 18.7659C76.0966 18.2959 76.3691 17.6479 76.4408 16.8199H72.8723V15.6639H77.633C77.6903 15.9139 77.7067 16.1559 77.7067 16.3899Z" fill="white" stroke="white" stroke-width="0.16" stroke-miterlimit="10"/>
<path d="M85.2592 12.3816H80.7874V15.4216H84.8188V16.5776H80.7874V19.6176H85.2592V20.7956H79.5215V11.2036H85.2592V12.3816Z" fill="white" stroke="white" stroke-width="0.16" stroke-miterlimit="10"/>
<path d="M90.5889 20.7956H89.323V12.3816H86.5801V11.2036H93.3339V12.3816H90.5889V20.7956Z" fill="white" stroke="white" stroke-width="0.16" stroke-miterlimit="10"/>
<path d="M98.2217 20.7956V11.2036H99.4856V20.7956H98.2217Z" fill="white" stroke="white" stroke-width="0.16" stroke-miterlimit="10"/>
<path d="M105.088 20.7956H103.832V12.3816H101.079V11.2036H107.841V12.3816H105.088V20.7956Z" fill="white" stroke="white" stroke-width="0.16" stroke-miterlimit="10"/>
<path d="M120.628 19.5619C119.659 20.5319 118.458 21.0159 117.026 21.0159C115.586 21.0159 114.386 20.5319 113.417 19.5619C112.45 18.5939 111.969 17.4059 111.969 15.9999C111.969 14.5939 112.45 13.4059 113.417 12.4379C114.386 11.4679 115.586 10.9839 117.026 10.9839C118.45 10.9839 119.65 11.4679 120.619 12.4459C121.594 13.4219 122.076 14.6019 122.076 15.9999C122.076 17.4059 121.594 18.5939 120.628 19.5619ZM114.353 18.7579C115.082 19.4759 115.969 19.8359 117.026 19.8359C118.075 19.8359 118.97 19.4759 119.691 18.7579C120.419 18.0399 120.787 17.1179 120.787 15.9999C120.787 14.8819 120.419 13.9599 119.691 13.2419C118.97 12.5239 118.075 12.1639 117.026 12.1639C115.969 12.1639 115.082 12.5239 114.353 13.2419C113.626 13.9599 113.257 14.8819 113.257 15.9999C113.257 17.1179 113.626 18.0399 114.353 18.7579Z" fill="white" stroke="white" stroke-width="0.16" stroke-miterlimit="10"/>
<path d="M123.853 20.7956V11.2036H125.389L130.166 18.6636H130.221L130.166 16.8196V11.2036H131.43V20.7956H130.111L125.108 12.9676H125.053L125.108 14.8196V20.7956H123.853Z" fill="white" stroke="white" stroke-width="0.16" stroke-miterlimit="10"/>
<path d="M111.657 34.8039C107.808 34.8039 104.664 37.6639 104.664 41.6099C104.664 45.5239 107.808 48.4139 111.657 48.4139C115.515 48.4139 118.659 45.5239 118.659 41.6099C118.659 37.6639 115.515 34.8039 111.657 34.8039ZM111.657 45.7339C109.545 45.7339 107.728 44.0319 107.728 41.6099C107.728 39.1559 109.545 37.4839 111.657 37.4839C113.769 37.4839 115.594 39.1559 115.594 41.6099C115.594 44.0319 113.769 45.7339 111.657 45.7339ZM96.3983 34.8039C92.5411 34.8039 89.4049 37.6639 89.4049 41.6099C89.4049 45.5239 92.5411 48.4139 96.3983 48.4139C100.254 48.4139 103.392 45.5239 103.392 41.6099C103.392 37.6639 100.254 34.8039 96.3983 34.8039ZM96.3983 45.7339C94.2843 45.7339 92.4612 44.0319 92.4612 41.6099C92.4612 39.1559 94.2843 37.4839 96.3983 37.4839C98.5103 37.4839 100.327 39.1559 100.327 41.6099C100.327 44.0319 98.5103 45.7339 96.3983 45.7339ZM78.2408 36.8899V39.7819H85.3141C85.1072 41.3979 84.5541 42.5859 83.7061 43.4139C82.6737 44.4139 81.0656 45.5239 78.2408 45.5239C73.8878 45.5239 70.4792 42.0939 70.4792 37.8439C70.4792 33.5939 73.8878 30.1639 78.2408 30.1639C80.5945 30.1639 82.307 31.0619 83.5709 32.2259L85.6583 30.1879C83.8904 28.5399 81.5388 27.2739 78.2408 27.2739C72.2716 27.2739 67.2549 32.0159 67.2549 37.8439C67.2549 43.6719 72.2716 48.4139 78.2408 48.4139C81.4671 48.4139 83.8904 47.3819 85.7955 45.4459C87.7477 43.5399 88.3561 40.8599 88.3561 38.6959C88.3561 38.0239 88.2987 37.4059 88.1963 36.8899H78.2408ZM152.489 39.1319C151.914 37.6099 150.138 34.8039 146.52 34.8039C142.935 34.8039 139.951 37.5619 139.951 41.6099C139.951 45.4219 142.905 48.4139 146.864 48.4139C150.066 48.4139 151.914 46.5079 152.674 45.3979L150.297 43.8519C149.505 44.9839 148.425 45.7339 146.864 45.7339C145.314 45.7339 144.201 45.0399 143.488 43.6719L152.811 39.9059L152.489 39.1319ZM142.984 41.3979C142.905 38.7739 145.072 37.4299 146.625 37.4299C147.841 37.4299 148.874 38.0239 149.218 38.8739L142.984 41.3979ZM135.407 47.9999H138.472V27.9999H135.407V47.9999ZM130.388 36.3199H130.286C129.598 35.5239 128.285 34.8039 126.621 34.8039C123.131 34.8039 119.939 37.7959 119.939 41.6319C119.939 45.4459 123.131 48.4139 126.621 48.4139C128.285 48.4139 129.598 47.6879 130.286 46.8679H130.388V47.8439C130.388 50.4459 128.965 51.8439 126.668 51.8439C124.796 51.8439 123.635 50.5239 123.155 49.4139L120.49 50.4999C121.258 52.3039 123.293 54.5239 126.668 54.5239C130.261 54.5239 133.293 52.4599 133.293 47.4379V35.2179H130.388V36.3199ZM126.884 45.7339C124.772 45.7339 123.004 44.0079 123.004 41.6319C123.004 39.2339 124.772 37.4839 126.884 37.4839C128.965 37.4839 130.606 39.2339 130.606 41.6319C130.606 44.0079 128.965 45.7339 126.884 45.7339ZM166.837 27.9999H159.507V47.9999H162.564V40.4219H166.837C170.231 40.4219 173.56 38.0239 173.56 34.2099C173.56 30.3979 170.223 27.9999 166.837 27.9999ZM166.917 37.6399H162.564V30.7819H166.917C169.199 30.7819 170.501 32.6319 170.501 34.2099C170.501 35.7579 169.199 37.6399 166.917 37.6399ZM185.81 34.7659C183.601 34.7659 181.305 35.7179 180.361 37.8279L183.073 38.9379C183.657 37.8279 184.73 37.4679 185.865 37.4679C187.45 37.4679 189.058 38.3979 189.083 40.0399V40.2499C188.53 39.9379 187.346 39.4759 185.889 39.4759C182.968 39.4759 179.992 41.0459 179.992 43.9759C179.992 46.6559 182.385 48.3819 185.074 48.3819C187.131 48.3819 188.266 47.4759 188.979 46.4219H189.083V47.9679H192.035V40.2959C192.035 36.7499 189.323 34.7659 185.81 34.7659ZM185.441 45.7259C184.441 45.7259 183.048 45.2419 183.048 44.0319C183.048 42.4839 184.785 41.8899 186.289 41.8899C187.635 41.8899 188.266 42.1799 189.083 42.5619C188.843 44.4139 187.211 45.7259 185.441 45.7259ZM202.789 35.2039L199.276 43.8739H199.172L195.54 35.2039H192.244L197.701 47.3199L194.587 54.0619H197.781L206.19 35.2039H202.789ZM175.24 47.9999H178.304V27.9999H175.24V47.9999Z" fill="white"/>
<path d="M17.1008 12.0622C16.6194 12.5542 16.3408 13.3202 16.3408 14.3122V49.6962C16.3408 50.6882 16.6194 51.4542 17.1008 51.9462L17.2196 52.0542L37.5281 32.2342V31.7662L17.2196 11.9462L17.1008 12.0622Z" fill="url(#paint0_linear)"/>
<path d="M44.2903 38.8438L37.5283 32.2338V31.7657L44.2985 25.1558L44.4501 25.2418L52.4678 29.6958C54.7559 30.9597 54.7559 33.0398 52.4678 34.3118L44.4501 38.7577L44.2903 38.8438Z" fill="url(#paint1_linear)"/>
<path d="M44.4496 38.7577L37.5279 31.9997L17.1006 51.9457C17.8606 52.7257 19.0999 52.8197 20.5092 52.0397L44.4496 38.7577Z" fill="url(#paint2_linear)"/>
<path d="M44.4496 25.242L20.5092 11.96C19.0999 11.188 17.8606 11.282 17.1006 12.062L37.5279 32L44.4496 25.242Z" fill="url(#paint3_linear)"/>
<defs>
<linearGradient id="paint0_linear" x1="35.7249" y1="50.0647" x2="8.88077" y2="22.5701" gradientUnits="userSpaceOnUse">
<stop stop-color="#00A0FF"/>
<stop offset="0.0066" stop-color="#00A1FF"/>
<stop offset="0.2601" stop-color="#00BEFF"/>
<stop offset="0.5122" stop-color="#00D2FF"/>
<stop offset="0.7604" stop-color="#00DFFF"/>
<stop offset="1" stop-color="#00E3FF"/>
</linearGradient>
<linearGradient id="paint1_linear" x1="55.4473" y1="31.9975" x2="15.7941" y2="31.9975" gradientUnits="userSpaceOnUse">
<stop stop-color="#FFE000"/>
<stop offset="0.4087" stop-color="#FFBD00"/>
<stop offset="0.7754" stop-color="#FFA500"/>
<stop offset="1" stop-color="#FF9C00"/>
</linearGradient>
<linearGradient id="paint2_linear" x1="40.6858" y1="28.326" x2="4.28292" y2="-8.95897" gradientUnits="userSpaceOnUse">
<stop stop-color="#FF3A44"/>
<stop offset="1" stop-color="#C31162"/>
</linearGradient>
<linearGradient id="paint3_linear" x1="11.9586" y1="63.7181" x2="28.2141" y2="47.0688" gradientUnits="userSpaceOnUse">
<stop stop-color="#32A071"/>
<stop offset="0.0685" stop-color="#2DA771"/>
<stop offset="0.4762" stop-color="#15CF74"/>
<stop offset="0.8009" stop-color="#06E775"/>
<stop offset="1" stop-color="#00F076"/>
</linearGradient>
</defs>
</svg>
