<svg width="114" height="89" viewBox="0 0 114 89" fill="none" xmlns="http://www.w3.org/2000/svg">
<path d="M98.3852 26.1423V78.4273H11.2451V26.1423L54.8163 0.000976562L98.3852 26.1423Z" fill="#0C56E9"/>
<path d="M98.3853 26.1423V78.4273H54.8164V0.000976562L98.3853 26.1423Z" fill="#286BF0"/>
<path d="M0 26.1425L11.2451 0H54.8159L43.5707 26.1425H0Z" fill="#729FF8"/>
<path d="M109.631 26.1425L98.3859 0H54.8154L66.0606 26.1425H109.631Z" fill="#9ABAF9"/>
<path d="M25.251 56.5178H32.2839V63.5507H25.251V56.5178Z" fill="#729FF8"/>
<path d="M113.663 69.6997C113.663 80.3587 105.022 89 94.3626 89C83.7018 89 75.0605 80.3587 75.0605 69.6997C75.0605 59.0388 83.7018 50.3976 94.3626 50.3976C105.022 50.3976 113.663 59.0387 113.663 69.6997Z" fill="#1DD1A1"/>
<path d="M113.663 69.6997C113.663 80.3587 105.021 89 94.3613 89V50.3976C105.021 50.3976 113.663 59.0387 113.663 69.6997Z" fill="#0D8A6A"/>
<path d="M104.012 66.86L94.3624 76.5904L92.6899 78.2771L84.7109 70.231L88.2777 66.6361L92.6899 71.0853L94.3624 69.399L100.445 63.265L104.012 66.86Z" fill="#F0F5FF"/>
</svg>
