<svg width="88" height="89" viewBox="0 0 88 89" fill="none" xmlns="http://www.w3.org/2000/svg">
<path d="M74.6365 41.3483H56.5557V74.1188H86.1796V59.3689L82.7246 47.4281C81.6832 43.8273 78.385 41.3483 74.6365 41.3483Z" fill="#729FF8"/>
<path d="M81.8545 59.2175L78.7755 48.5737C78.2446 46.744 76.5427 45.4635 74.6364 45.4635H60.6709V59.2175H81.8545Z" fill="#729FF8"/>
<path d="M81.8577 59.212H60.6631V45.458L81.8577 59.212Z" fill="#B9D0FD"/>
<path d="M81.8545 59.2175L78.7755 48.5737C78.2446 46.744 76.5427 45.4635 74.6364 45.4635H60.6709L81.8545 59.2175Z" fill="#E7EEFE"/>
<path d="M5.47239 24.8964H51.0829C54.1037 24.8964 56.5553 27.3461 56.5553 30.3688V74.1169H0V30.3688C0 27.3463 2.44975 24.8964 5.47239 24.8964Z" fill="#0C56E9"/>
<path d="M37.0668 24.9056V39.3654L34.9507 37.2495L32.7327 39.4677L30.5163 37.2495L28.3 39.4677L26.0799 37.2495L23.8345 39.4677L21.6199 37.2495L19.4785 39.3911V24.9056H37.0668Z" fill="#B9D0FD"/>
<path d="M87.5661 74.1151V80.2989H0.0078125V74.1151H9.14671C11.2809 70.2844 15.3852 67.6941 20.0915 67.6941C24.7795 67.6941 28.8838 70.2844 31.0363 74.1151H60.4413C62.5756 70.2844 66.6599 67.6941 71.3661 67.6941C76.0724 67.6941 80.1584 70.2844 82.3109 74.1151H87.5661Z" fill="#364B63"/>
<path d="M80.1051 80.2605C80.1051 85.0872 76.1924 88.9999 71.3657 88.9999C66.5391 88.9999 62.6299 85.0872 62.6299 80.2605C62.6299 75.4339 66.5408 71.5211 71.3657 71.5211C76.1942 71.5211 80.1051 75.4339 80.1051 80.2605Z" fill="#607080"/>
<path d="M74.8784 80.2605C74.8784 82.1997 73.306 83.7702 71.3687 83.7702C69.4296 83.7702 67.8555 82.1997 67.8555 80.2605C67.8555 78.3214 69.4279 76.7509 71.3687 76.7509C73.306 76.7491 74.8784 78.3216 74.8784 80.2605Z" fill="#D3DDE7"/>
<path d="M28.8236 80.2605C28.8236 85.0872 24.9089 88.9999 20.0841 88.9999C15.2575 88.9999 11.3447 85.0872 11.3447 80.2605C11.3447 75.4339 15.2575 71.5211 20.0841 71.5211C24.9089 71.5211 28.8236 75.4339 28.8236 80.2605Z" fill="#607080"/>
<path d="M23.5933 80.2605C23.5933 82.1997 22.0228 83.7702 20.0837 83.7702C18.1446 83.7702 16.5723 82.1997 16.5723 80.2605C16.5723 78.3214 18.1447 76.7509 20.0837 76.7509C22.0226 76.7509 23.5933 78.3216 23.5933 80.2605Z" fill="#D3DDE7"/>
<path d="M45.663 0L41.9688 18.6399L45.663 45L58.8431 31.8199C62.2161 28.4468 64.3025 23.7868 64.3025 18.6397C64.3025 8.34519 55.9573 0 45.663 0Z" fill="#E50058"/>
<path d="M27.0234 18.6395C27.0234 23.7866 29.1098 28.4467 32.4829 31.8197L45.663 45V0C35.3686 0 27.0234 8.3452 27.0234 18.6395Z" fill="#FF415B"/>
<path d="M45.663 5.54114L41.9688 18.64L45.663 31.7389C52.8855 31.7389 58.7618 25.8628 58.7618 18.64C58.7618 11.4172 52.8855 5.54114 45.663 5.54114Z" fill="#FF415B"/>
<path d="M32.5635 18.64C32.5635 25.8628 38.4396 31.7389 45.6623 31.7389V5.54114C38.4398 5.54114 32.5635 11.4172 32.5635 18.64Z" fill="#FF7C48"/>
<path d="M53.2208 18.64C53.2208 14.4725 49.8304 11.0822 45.663 11.0822L41.9688 18.64L45.663 26.1978C49.8302 26.1978 53.2208 22.8074 53.2208 18.64Z" fill="#E1EBF0"/>
<path d="M38.1055 18.64C38.1055 22.8074 41.4959 26.1978 45.6633 26.1978V11.0822C41.4959 11.0822 38.1055 14.4725 38.1055 18.64Z" fill="#FFF5F5"/>
</svg>
