<svg width="80" height="80" viewBox="0 0 80 80" fill="none" xmlns="http://www.w3.org/2000/svg">
<path d="M29.761 43.8052C29.7783 44.915 29.5746 46.0171 29.1618 47.0475C28.749 48.0778 28.1354 49.0157 27.3566 49.8066C26.5779 50.5976 25.6496 51.2257 24.6258 51.6544C23.602 52.0831 22.5032 52.3039 21.3932 52.3039C20.2833 52.3039 19.1844 52.0831 18.1606 51.6544C17.1368 51.2257 16.2085 50.5976 15.4298 49.8066C14.6511 49.0157 14.0375 48.0778 13.6247 47.0475C13.2119 46.0171 13.0082 44.915 13.0254 43.8052C13.0254 39.183 21.4366 27.8262 21.4366 27.8262C21.4366 27.8262 29.761 39.183 29.761 43.8052Z" fill="#0C56E9"/>
<path d="M66.982 43.8052C66.982 46.0258 66.0999 48.1555 64.5297 49.7257C62.9595 51.2959 60.8298 52.178 58.6092 52.178C56.3886 52.178 54.2589 51.2959 52.6887 49.7257C51.1185 48.1555 50.2363 46.0258 50.2363 43.8052C50.2363 39.183 58.6495 27.8262 58.6495 27.8262C58.6495 27.8262 66.982 39.183 66.982 43.8052Z" fill="#0C56E9"/>
<path d="M40.0391 11.6585C43.0856 16.0528 46.9512 22.517 46.9512 25.1963C46.9512 27.0391 46.2192 28.8065 44.9161 30.1096C43.613 31.4127 41.8456 32.1448 40.0028 32.1448C38.16 32.1448 36.3926 31.4127 35.0895 30.1096C33.7864 28.8065 33.0543 27.0391 33.0543 25.1963C33.0543 22.521 36.9623 16.0548 40.0391 11.6585ZM40.0391 9.21729C40.0391 9.21729 31.6279 20.5741 31.6279 25.1963C31.6279 27.4169 32.5101 29.5466 34.0803 31.1168C35.6505 32.687 37.7802 33.5691 40.0008 33.5691C42.2214 33.5691 44.3511 32.687 45.9213 31.1168C47.4915 29.5466 48.3736 27.4169 48.3736 25.1963C48.3736 20.5741 40.0472 9.21729 40.0472 9.21729H40.0391Z" fill="#0C56E9"/>
<path d="M48.3717 62.4125C48.3717 63.5121 48.1551 64.6008 47.7343 65.6167C47.3135 66.6325 46.6968 67.5555 45.9193 68.333C45.1418 69.1105 44.2188 69.7273 43.203 70.148C42.1871 70.5688 41.0984 70.7854 39.9988 70.7854C38.8993 70.7854 37.8105 70.5688 36.7947 70.148C35.7788 69.7273 34.8558 69.1105 34.0783 68.333C33.3008 67.5555 32.6841 66.6325 32.2633 65.6167C31.8425 64.6008 31.626 63.5121 31.626 62.4125C31.626 57.7923 40.0372 46.4355 40.0372 46.4355C40.0372 46.4355 48.3717 57.7923 48.3717 62.4125Z" fill="#0C56E9"/>
<path d="M40 4.49914C47.0201 4.50239 53.8818 6.58643 59.7179 10.4879C65.5541 14.3894 70.1028 19.9333 72.7894 26.419C75.4759 32.9047 76.1797 40.0412 74.8119 46.9268C73.4441 53.8124 70.066 60.138 65.1044 65.1044C61.8328 68.512 57.9141 71.2326 53.5779 73.1068C49.2416 74.981 44.575 75.9712 39.8513 76.0193C35.1276 76.0674 30.4418 75.1724 26.0683 73.3869C21.6948 71.6014 17.7216 68.9611 14.3812 65.6208C11.0409 62.2805 8.40065 58.3072 6.61512 53.9337C4.82958 49.5602 3.93466 44.8744 3.98274 40.1507C4.03083 35.427 5.02097 30.7604 6.89518 26.4242C8.76938 22.0879 11.49 18.1692 14.8976 14.8976C18.1862 11.5904 22.0982 8.96847 26.4071 7.18356C30.7159 5.39864 35.3361 4.48623 40 4.49914ZM40 0C17.9098 0 0 17.9078 0 40C0 62.0922 17.9098 80 40 80C62.0902 80 80 62.0922 80 40C80 17.9078 62.0922 0 40 0Z" fill="#0C56E9"/>
</svg>
